<svg xmlns="http://www.w3.org/2000/svg" viewBox="548 215 140 125">
  <defs>
    <linearGradient id="gold1" x1="566.157" x2="652.058" y1="279.074" y2="354.582" gradientUnits="userSpaceOnUse">
      <stop offset=".165" style="stop-color:#ce9968"/>
      <stop offset=".522" style="stop-color:#a67649"/>
      <stop offset=".735" style="stop-color:#94673b"/>
    </linearGradient>
    <linearGradient id="gold2" x1="562.425" x2="630.675" y1="244.656" y2="320.556" gradientUnits="userSpaceOnUse">
      <stop offset="0" style="stop-color:#89684e"/>
      <stop offset=".168" style="stop-color:#8e6c50"/>
      <stop offset=".304" style="stop-color:#926f51"/>
      <stop offset=".913" style="stop-color:#c1945f"/>
    </linearGradient>
  </defs>
  <!-- R letter - teal part -->
  <path d="M657.64 328.58c-.09-.01-6.93.02-16.04-6.88-8.83-6.69-18.22-21.65-20.95-33.37l-.73-63.97h-16.71v2.36h.75c.19 0 4.75.04 4.99 3.84v56.2l.11.18c.04.07 4.05 6.66 7.44 13.16q.375.72.87 1.74c4.05 8.17 14.26 28.76 34.62 28.76 1.84 0 3.77-.17 5.78-.53z" fill="#246564"/>
  <!-- Gold swoosh 1 -->
  <path d="M552.56 279.89c1.23-.66 2.7-.78 4.11-.79 1.42 0 2.83.21 4.22.49 2.75.62 5.41 1.6 7.91 2.8 5.01 2.4 9.56 5.53 13.74 8.97 4.21 3.42 8.02 7.24 11.61 11.17l5.17 5.93c1.67 1.98 3.32 3.95 4.98 5.86 1.64 1.92 3.28 3.8 4.97 5.6 1.66 1.82 3.36 3.55 5.13 5.16 3.49 3.28 7.24 6.08 11.39 8.23 4.15 2.17 8.74 3.62 13.64 4.44 4.91.82 10.08.94 15.41.92-2.41 1.14-4.9 2.13-7.5 2.86-2.59.78-5.28 1.29-8.03 1.59-5.49.58-11.3.13-16.8-1.64-2.76-.84-5.42-2.01-7.95-3.36-2.52-1.37-4.89-2.97-7.15-4.65a80 80 0 0 1-6.33-5.43q-2.955-2.865-5.67-5.82c-1.79-1.99-3.52-3.98-5.23-5.95l-4.99-5.91c-3.25-3.91-6.52-7.73-9.82-11.51-3.31-3.78-6.7-7.44-10.31-10.87-.9-.86-1.83-1.67-2.77-2.5-.95-.78-1.91-1.59-2.93-2.31-1.01-.73-2.06-1.41-3.17-2-1.13-.56-2.29-1.12-3.63-1.28" fill="url(#gold1)"/>
  <!-- Gold swoosh 2 -->
  <path d="M564.05 253.08c2.65-1.04 5.62-1.31 8.55-1.1 2.94.22 5.88.99 8.64 2.18 1.38.61 2.72 1.32 4 2.11.65.39 1.25.84 1.88 1.27q.915.675 1.8 1.38c.56.5 1.14.99 1.69 1.5.54.52 1.09 1.04 1.61 1.58l1.51 1.67 1.42 1.74c.91 1.18 1.76 2.4 2.56 3.65a46 46 0 0 1 2.24 3.82c1.42 2.63 2.51 5.16 3.62 7.73 2.22 5.09 4.27 10.1 6.54 14.95 4.5 9.68 9.8 18.83 17.33 26 3.75 3.58 8.05 6.61 12.8 9.01s9.95 4.11 15.37 5.4c-5.55.38-11.26-.15-16.78-1.74-5.53-1.57-10.84-4.21-15.53-7.71-4.72-3.48-8.79-7.78-12.27-12.41-3.48-4.64-6.37-9.63-8.9-14.7-2.52-5.07-4.7-10.24-6.8-15.29-1.06-2.5-2.12-5.04-3.18-7.33-.25-.6-.57-1.15-.84-1.73s-.56-1.16-.87-1.71c-.58-1.14-1.25-2.21-1.89-3.31-2.66-4.3-5.89-8.2-9.95-11.22-4.04-3.01-8.95-5.22-14.55-5.74" fill="url(#gold2)"/>
  <!-- R top part - teal -->
  <path d="M679.13 248.6c-.78-4.81-2.62-9.41-5.31-13.28-2.77-4.01-6.42-7.24-10.56-9.34a25 25 0 0 0-4.96-1.89c-.56-.15-1.1-.27-1.66-.38-2.17-.44-4.41-.67-6.66-.69-4.21-.01-8.51.67-12.81 2.09-2 .66-3.98 1.46-5.9 2.39-2.12 1.04-3.91 2.08-5.47 3.17 0 0 12.87-4.87 23.8-2.61 1.87.39 3.73.75 5.47 1.38.44.16.88.33 1.3.5.41.17.81.36 1.2.55.76.38 1.52.84 2.25 1.35 2.81 1.96 5.14 4.69 6.74 7.88 1.53 3.02 2.37 6.45 2.44 9.91.07 3.32-.54 6.67-1.83 9.96-1.19 3.06-2.96 6.06-5.27 8.92q-1.815 2.25-4.08 4.41c-.85 1.02-2.44 2.38-4.11 3.7l8.38 10.07.58-.61c.5-.53 1.17-1.15 1.94-1.88 4.05-3.79 10.84-10.14 13.94-21.17 1.13-4.84 1.34-9.82.58-14.43" fill="#246564"/>
</svg>
