<?xml version="1.0" encoding="utf-8"?>
<!-- Generator: Adobe Illustrator 24.1.3, SVG Export Plug-In . SVG Version: 6.00 Build 0)  -->
<svg version="1.1" id="Layer_1" xmlns="http://www.w3.org/2000/svg" xmlns:xlink="http://www.w3.org/1999/xlink" x="0px" y="0px"
	 viewBox="0 0 1280 720" style="enable-background:new 0 0 1280 720;" xml:space="preserve">
<style type="text/css">
	.st0{fill:#246564;}
	.st1{fill:url(#SVGID_1_);}
	.st2{fill:url(#SVGID_2_);}
	.st3{fill:url(#SVGID_3_);}
	.st4{fill:url(#SVGID_4_);}
	.st5{fill:url(#SVGID_5_);}
	.st6{fill:url(#SVGID_6_);}
	.st7{fill:url(#SVGID_7_);}
	.st8{fill:url(#SVGID_8_);}
	.st9{fill:url(#SVGID_9_);}
	.st10{fill:url(#SVGID_10_);}
	.st11{fill:url(#SVGID_11_);}
</style>
<g>
	<g>
		<g>
			<path d="M463.05,428.78c0.03-0.15,0.25-0.27,0.65-0.37c0.4-0.1,0.66-0.24,0.77-0.42c0.54-0.85,1.06-1.5,1.55-1.95
				c0.5-0.45,1.2-0.91,2.09-1.38c1.42-0.75,2.98-1.11,4.68-1.08c1.22,0.02,2.33,0.2,3.31,0.54c0.98,0.34,1.87,0.94,2.67,1.79
				c0.64,0.67,1.06,1.48,1.27,2.45c0.21,0.96,0.2,1.89-0.05,2.77c-0.42,1.67-1.33,2.98-2.71,3.93c-1.38,0.96-2.98,1.43-4.81,1.43
				c-2.25,0-4.05-0.48-5.39-1.45c-0.77-0.56-1.46-1.21-2.08-1.96c-0.51,1.67-1.11,3.23-1.81,4.68c-0.16,0.36-0.41,0.67-0.75,0.93
				c-0.33,0.26-0.67,0.33-1.02,0.22c-0.33-0.11-0.54-0.36-0.64-0.73c-0.1-0.38-0.08-0.74,0.05-1.08c0.9-2.81,1.53-5.08,1.91-6.81
				c0.03-0.18,0.08-0.45,0.15-0.81C462.97,429.13,463.02,428.89,463.05,428.78z M466.73,429.73c-0.24,0.42-0.29,0.82-0.12,1.17
				c0.41,0.92,1.13,1.67,2.18,2.25c1.26,0.7,2.59,1,3.99,0.88c1.01-0.08,1.9-0.38,2.67-0.91c0.77-0.52,1.35-1.22,1.74-2.08
				c0.34-0.75,0.35-1.52,0.01-2.31c-0.33-0.79-0.83-1.34-1.48-1.65c-0.8-0.39-1.66-0.62-2.57-0.69s-1.79,0.04-2.62,0.32
				C468.79,427.31,467.53,428.31,466.73,429.73z"/>
			<path d="M484.97,424.64c0.2-0.39,0.52-0.66,0.98-0.81c0.46-0.15,0.87-0.12,1.22,0.07c0.33,0.18,0.53,0.46,0.61,0.84
				c0.08,0.39,0.04,0.75-0.12,1.09c-0.33,0.77-0.86,1.79-1.59,3.06c-0.18,0.31-0.49,0.52-0.92,0.64c-0.43,0.11-0.76,0.1-0.99-0.03
				c-0.36-0.18-0.6-0.47-0.72-0.87c-0.12-0.4-0.09-0.77,0.11-1.11C483.58,427.48,484.06,426.52,484.97,424.64z"/>
			<path d="M490.38,426.55c0.34-0.46,0.78-0.89,1.3-1.31c0.52-0.42,0.98-0.7,1.37-0.85c0.57-0.23,1.23-0.24,1.98-0.03
				c0.34-0.21,0.8-0.41,1.38-0.59c0.58-0.18,1.13-0.25,1.65-0.22c1.09,0.08,1.96,0.33,2.58,0.73c0.63,0.41,1.16,1,1.6,1.76
				c0.72,1.26,0.87,2.68,0.44,4.28c-0.23,0.83-0.62,1.66-1.16,2.47c-0.55,0.82-1.18,1.49-1.9,2.01c-1.63,1.19-3.5,1.77-5.61,1.74
				c-2.02-0.03-3.54-0.61-4.56-1.74c-0.95-1.06-1.17-2.67-0.66-4.82c0.13-0.56,0.35-1.17,0.66-1.86
				C489.79,427.45,490.09,426.92,490.38,426.55z M491.24,431.01c-0.1,0.78-0.03,1.35,0.22,1.7c0.24,0.35,0.63,0.65,1.15,0.89
				c0.64,0.31,1.41,0.39,2.33,0.25c0.91-0.15,1.83-0.49,2.74-1.03c0.62-0.38,1.16-0.86,1.62-1.46c0.46-0.6,0.76-1.21,0.91-1.85
				c0.18-0.83,0.09-1.55-0.27-2.16c-0.36-0.6-0.91-0.96-1.64-1.08c-0.7-0.13-1.42-0.02-2.14,0.34c-0.73,0.36-1.27,0.72-1.63,1.08
				c-0.21,0.2-0.51,0.32-0.91,0.36c-0.39,0.04-0.73-0.04-1-0.23C491.91,428.34,491.45,429.41,491.24,431.01z"/>
			<path d="M492.83,444.69c-0.34-0.29-0.66-0.67-0.96-1.13c-0.29-0.46-0.48-0.89-0.56-1.3c-0.07-0.34-0.02-0.63,0.15-0.86
				c0.16-0.23,0.36-0.34,0.57-0.34c0.22,0,0.41,0.08,0.58,0.25c0.03,0.05,0.11,0.16,0.24,0.34c0.13,0.18,0.22,0.3,0.27,0.37
				c0.05,0.06,0.14,0.17,0.27,0.32s0.25,0.26,0.37,0.34c0.11,0.08,0.25,0.18,0.42,0.29c0.16,0.11,0.34,0.21,0.54,0.29
				c0.2,0.08,0.41,0.16,0.64,0.24c1.34,0.36,2.52,0.36,3.55,0c1.03-0.36,1.9-1.02,2.62-1.98c0.67-0.88,1.41-2.3,2.23-4.26
				c0.67-1.58,1.44-3.6,2.3-6.05c0.06-0.15,0.18-0.45,0.33-0.91c0.15-0.46,0.27-0.78,0.34-0.98c0.07-0.2,0.18-0.49,0.33-0.88
				c0.15-0.39,0.27-0.71,0.38-0.96c0.11-0.24,0.23-0.53,0.38-0.86c0.15-0.33,0.3-0.62,0.45-0.89c0.15-0.27,0.31-0.53,0.48-0.8
				c0.34-0.52,0.71-0.89,1.1-1.11s0.77-0.24,1.13-0.06c0.82,0.41,0.92,1.22,0.32,2.42c-0.6,1.19-1.25,2.69-1.94,4.51l-2.35,6.24
				c-0.77,2.01-1.73,3.79-2.89,5.36c-1.14,1.55-2.59,2.62-4.33,3.21c-0.73,0.25-1.48,0.4-2.24,0.48c-0.76,0.07-1.57,0.01-2.44-0.2
				C494.25,445.6,493.49,445.23,492.83,444.69z"/>
			<path d="M500.55,444.69c-0.34-0.29-0.66-0.67-0.96-1.13c-0.29-0.46-0.48-0.89-0.56-1.3c-0.07-0.34-0.02-0.63,0.15-0.86
				c0.16-0.23,0.36-0.34,0.57-0.34c0.22,0,0.41,0.08,0.58,0.25c0.03,0.05,0.11,0.16,0.24,0.34c0.13,0.18,0.22,0.3,0.27,0.37
				c0.05,0.06,0.14,0.17,0.27,0.32s0.25,0.26,0.37,0.34c0.11,0.08,0.25,0.18,0.42,0.29c0.16,0.11,0.34,0.21,0.54,0.29
				c0.2,0.08,0.41,0.16,0.64,0.24c1.34,0.36,2.52,0.36,3.55,0c1.03-0.36,1.9-1.02,2.62-1.98c0.67-0.88,1.41-2.3,2.23-4.26
				c0.67-1.58,1.44-3.6,2.3-6.05c0.06-0.15,0.18-0.45,0.33-0.91c0.15-0.46,0.27-0.78,0.34-0.98c0.07-0.2,0.18-0.49,0.33-0.88
				c0.15-0.39,0.27-0.71,0.38-0.96c0.11-0.24,0.23-0.53,0.38-0.86c0.15-0.33,0.3-0.62,0.45-0.89c0.15-0.27,0.31-0.53,0.48-0.8
				c0.34-0.52,0.71-0.89,1.1-1.11c0.39-0.22,0.77-0.24,1.13-0.06c0.82,0.41,0.92,1.22,0.32,2.42c-0.6,1.19-1.25,2.69-1.94,4.51
				l-2.35,6.24c-0.77,2.01-1.73,3.79-2.89,5.36c-1.14,1.55-2.59,2.62-4.33,3.21c-0.73,0.25-1.48,0.4-2.24,0.48
				c-0.76,0.07-1.57,0.01-2.44-0.2C501.96,445.6,501.2,445.23,500.55,444.69z"/>
			<path d="M522.81,424.64c0.2-0.39,0.52-0.66,0.98-0.81c0.46-0.15,0.87-0.12,1.22,0.07c0.33,0.18,0.53,0.46,0.61,0.84
				c0.08,0.39,0.04,0.75-0.12,1.09c-0.33,0.77-0.86,1.79-1.59,3.06c-0.18,0.31-0.49,0.52-0.92,0.64c-0.43,0.11-0.76,0.1-0.99-0.03
				c-0.36-0.18-0.6-0.47-0.72-0.87c-0.12-0.4-0.09-0.77,0.11-1.11C521.42,427.48,521.89,426.52,522.81,424.64z"/>
			<path d="M528.02,426.91c-0.38-0.46-0.32-0.95,0.16-1.48c0.48-0.53,1.08-0.92,1.8-1.16c1.49-0.51,2.91-0.76,4.29-0.76
				c2.17,0,3.79,0.59,4.85,1.76c0.65,0.73,1.07,1.62,1.26,2.66c0.19,1.04,0.09,2.07-0.28,3.1c-0.62,1.67-1.66,2.96-3.11,3.9
				c-1.73,1.09-3.58,1.64-5.56,1.64c-1.97,0-3.38-0.49-4.21-1.47c-0.72-0.85-0.9-1.84-0.54-2.99c0.44-1.37,1.33-2.28,2.67-2.72
				c0.49-0.16,1.02-0.27,1.58-0.33c0.56-0.06,1.03-0.04,1.41,0.04c0.59,0.13,1.06,0.36,1.42,0.7c0.36,0.33,0.47,0.67,0.32,0.99
				c-0.15,0.31-0.33,0.54-0.55,0.69c-0.22,0.15-0.46,0.22-0.72,0.22s-0.54,0-0.84-0.01c-0.3-0.01-0.61,0-0.92,0.01
				c-0.44,0.05-0.82,0.15-1.14,0.32c-0.32,0.16-0.53,0.38-0.63,0.64c-0.15,0.44-0.03,0.8,0.36,1.06s0.85,0.41,1.4,0.43
				c0.55,0.02,1.06-0.02,1.53-0.1c1.71-0.41,3.09-1.25,4.11-2.52c0.49-0.6,0.78-1.29,0.88-2.06c0.1-0.77,0-1.38-0.29-1.84
				c-0.23-0.38-0.49-0.64-0.8-0.81c-0.3-0.16-0.77-0.3-1.41-0.42c-1.18-0.2-2.33-0.07-3.48,0.39c-0.6,0.25-1.12,0.42-1.54,0.51
				c-0.42,0.1-0.82,0.12-1.18,0.07C528.5,427.33,528.22,427.18,528.02,426.91z"/>
			<path d="M548.55,421.18c0.38,0.11,0.65,0.34,0.83,0.69c0.18,0.34,0.2,0.69,0.07,1.05c-0.7,1.99-1.62,4.3-2.77,6.93
				c-1,2.29-1.79,3.97-2.38,5.05c-0.59,1.09-1.34,1.59-2.25,1.49c-0.41-0.05-0.68-0.26-0.82-0.64c-0.14-0.38-0.12-0.73,0.06-1.05
				c1.37-2.94,2.36-5.11,2.96-6.51c0.82-1.89,1.62-3.9,2.42-6c0.15-0.39,0.4-0.69,0.75-0.88
				C547.78,421.11,548.15,421.07,548.55,421.18z"/>
			<path d="M565.64,435.17c0.03-0.29,0.22-1.01,0.56-2.15c0.31-1.01,0.78-2.36,1.4-4.03c0.62-1.67,1-2.79,1.15-3.34
				c0.06-0.23,0.17-0.42,0.32-0.59c0.15-0.16,0.32-0.23,0.51-0.2c0.1,0.02,0.18,0.04,0.26,0.06c0.07,0.03,0.16,0.07,0.26,0.12
				c0.1,0.06,0.18,0.1,0.24,0.14c0.03,0.02,0.07,0.03,0.1,0.04c0.03,0.01,0.07,0.01,0.11,0c0.04-0.01,0.08-0.01,0.11-0.01
				s0.07-0.01,0.12-0.04c0.05-0.03,0.08-0.05,0.1-0.06c0.02-0.02,0.05-0.04,0.11-0.07s0.09-0.05,0.1-0.06
				c0.01-0.01,0.08-0.06,0.21-0.16c0.65-0.49,1.43-0.85,2.33-1.08c1.06-0.26,2.09-0.25,3.1,0.03c1,0.28,1.83,0.74,2.49,1.37
				c0.9,0.87,1.38,1.98,1.44,3.35c0.06,1.37-0.26,2.73-0.98,4.07c-0.46,0.92-1.09,1.82-1.91,2.72c-0.42,0.47-0.88,0.84-1.37,1.11
				c-0.49,0.27-0.86,0.29-1.1,0.06c-0.13-0.13-0.21-0.28-0.23-0.45c-0.03-0.17,0.02-0.36,0.12-0.57c0.11-0.21,0.21-0.39,0.31-0.54
				c0.1-0.15,0.24-0.34,0.42-0.59c0.05-0.07,0.09-0.11,0.12-0.15c0.8-1.06,1.35-2.09,1.64-3.09c0.39-1.32,0.4-2.4,0.02-3.23
				c-0.18-0.41-0.51-0.74-0.99-0.99s-1-0.37-1.55-0.35c-1.09,0.02-1.99,0.4-2.69,1.15c-0.15,0.15-0.31,0.39-0.48,0.71
				c-0.17,0.33-0.36,0.57-0.55,0.74c-0.08,0.08-0.24,0.15-0.49,0.21c-0.24,0.06-0.39,0.14-0.44,0.26l-2.79,6.05
				c-0.13,0.26-0.32,0.49-0.58,0.67c-0.25,0.19-0.49,0.28-0.7,0.28c-0.29,0-0.51-0.14-0.64-0.43
				C565.65,435.83,565.61,435.51,565.64,435.17z"/>
			<path d="M588.76,421.18c0.38,0.11,0.65,0.34,0.83,0.69c0.18,0.34,0.2,0.69,0.07,1.05c-0.7,1.99-1.62,4.3-2.77,6.93
				c-1,2.29-1.79,3.97-2.38,5.05c-0.59,1.09-1.34,1.59-2.25,1.49c-0.41-0.05-0.68-0.26-0.82-0.64c-0.14-0.38-0.12-0.73,0.06-1.05
				c1.37-2.94,2.36-5.11,2.96-6.51c0.82-1.89,1.62-3.9,2.42-6c0.15-0.39,0.4-0.69,0.75-0.88
				C587.99,421.11,588.37,421.07,588.76,421.18z"/>
			<path d="M601.86,418.83c1.16-0.2,1.84,0.03,2.03,0.69c0.1,0.31-0.02,0.6-0.37,0.88c-0.34,0.28-0.75,0.47-1.22,0.59
				c-1.21,0.31-2.41,0.8-3.6,1.47c-0.74,0.43-1.39,0.87-1.96,1.35c-0.57,0.47-1.14,1.08-1.69,1.81c-1.17,1.57-1.85,3.18-2.01,4.85
				c-0.07,0.57,0.02,1.14,0.24,1.69c0.23,0.56,0.62,0.96,1.18,1.22c0.51,0.26,1.22,0.3,2.13,0.12c0.91-0.18,1.77-0.56,2.57-1.15
				c0.57-0.42,1.18-0.96,1.81-1.62c0.64-0.65,1.04-1.13,1.2-1.42c0.21-0.39,0.5-0.69,0.86-0.88c0.36-0.2,0.71-0.2,1.05-0.03
				c0.29,0.15,0.5,0.36,0.61,0.63s0.15,0.54,0.11,0.82c-0.04,0.28-0.13,0.54-0.28,0.78c-0.85,1.4-1.85,2.58-2.99,3.53
				c-0.92,0.77-1.92,1.36-3.02,1.78c-1.1,0.42-2.2,0.62-3.29,0.6c-0.98-0.02-1.87-0.26-2.68-0.72c-0.81-0.47-1.43-1.15-1.87-2.05
				c-0.69-1.39-0.73-3.17-0.15-5.34c0.52-1.96,1.47-3.62,2.84-5c1.55-1.55,3.2-2.71,4.95-3.48
				C599.6,419.39,600.78,419.01,601.86,418.83z"/>
			<path d="M609.3,424.64c0.2-0.39,0.52-0.66,0.98-0.81c0.46-0.15,0.86-0.12,1.22,0.07c0.33,0.18,0.53,0.46,0.61,0.84
				c0.08,0.39,0.04,0.75-0.12,1.09c-0.33,0.77-0.86,1.79-1.59,3.06c-0.18,0.31-0.49,0.52-0.92,0.64c-0.43,0.11-0.76,0.1-0.99-0.03
				c-0.36-0.18-0.6-0.47-0.72-0.87c-0.12-0.4-0.09-0.77,0.11-1.11C607.92,427.48,608.39,426.52,609.3,424.64z"/>
			<path d="M614.52,425.25c0.7-0.56,1.69-0.97,2.98-1.24c1.28-0.27,2.61-0.38,3.98-0.33c3.12,0.13,5.45,1.24,7,3.33
				c0.57,0.78,0.91,1.76,1.03,2.93c0.11,1.17-0.06,2.36-0.51,3.56c-0.36,0.85-0.87,1.56-1.52,2.14s-1.31,0.88-1.98,0.89
				c-1.45,0.02-2.78-0.74-3.99-2.28c-0.38-0.47-0.78-0.81-1.2-1c-0.15-0.1-0.3-0.13-0.45-0.09c-0.15,0.04-0.35,0.18-0.57,0.4
				c-0.2,0.23-0.46,0.59-0.8,1.09c-0.33,0.5-0.63,0.88-0.89,1.16c-0.28,0.28-0.61,0.43-1,0.45c-0.39,0.03-0.73-0.1-1-0.38
				c-0.28-0.34-0.4-0.7-0.37-1.08s0.18-0.76,0.44-1.15c0.6-0.88,1.24-1.73,1.91-2.55c0.52-0.64,1.18-0.96,1.98-0.97
				c0.8-0.01,1.54,0.32,2.23,0.97c0.28,0.26,0.57,0.56,0.87,0.89c0.3,0.33,0.58,0.63,0.84,0.87c0.26,0.25,0.6,0.51,1,0.81
				c0.36,0.28,0.7,0.36,1.02,0.26c0.32-0.11,0.59-0.3,0.81-0.58c0.22-0.28,0.4-0.64,0.55-1.08c0.2-0.52,0.26-1.12,0.18-1.8
				c-0.07-0.68-0.29-1.24-0.65-1.7c-0.52-0.69-1.18-1.25-1.98-1.69c-0.8-0.44-1.63-0.69-2.5-0.76c-2.04-0.15-4.06,0.29-6.07,1.3
				c-0.36,0.18-0.73,0.22-1.13,0.11c-0.39-0.11-0.69-0.32-0.88-0.65c-0.15-0.28-0.15-0.6-0.01-0.96
				C613.96,425.8,614.19,425.49,614.52,425.25z"/>
			<path d="M633.18,425.25c0.7-0.56,1.69-0.97,2.98-1.24c1.28-0.27,2.61-0.38,3.98-0.33c3.12,0.13,5.45,1.24,7,3.33
				c0.57,0.78,0.91,1.76,1.03,2.93c0.11,1.17-0.06,2.36-0.51,3.56c-0.36,0.85-0.87,1.56-1.52,2.14s-1.31,0.88-1.98,0.89
				c-1.45,0.02-2.78-0.74-3.99-2.28c-0.38-0.47-0.78-0.81-1.2-1c-0.15-0.1-0.3-0.13-0.45-0.09c-0.15,0.04-0.35,0.18-0.57,0.4
				c-0.2,0.23-0.46,0.59-0.8,1.09c-0.33,0.5-0.63,0.88-0.89,1.16c-0.28,0.28-0.61,0.43-1,0.45c-0.39,0.03-0.73-0.1-1-0.38
				c-0.28-0.34-0.4-0.7-0.37-1.08s0.18-0.76,0.44-1.15c0.6-0.88,1.24-1.73,1.91-2.55c0.52-0.64,1.18-0.96,1.98-0.97
				c0.8-0.01,1.54,0.32,2.23,0.97c0.28,0.26,0.57,0.56,0.87,0.89c0.3,0.33,0.58,0.63,0.84,0.87c0.26,0.25,0.6,0.51,1,0.81
				c0.36,0.28,0.7,0.36,1.02,0.26c0.32-0.11,0.59-0.3,0.81-0.58c0.22-0.28,0.4-0.64,0.55-1.08c0.2-0.52,0.26-1.12,0.18-1.8
				c-0.07-0.68-0.29-1.24-0.65-1.7c-0.52-0.69-1.18-1.25-1.98-1.69c-0.8-0.44-1.63-0.69-2.5-0.76c-2.04-0.15-4.06,0.29-6.07,1.3
				c-0.36,0.18-0.73,0.22-1.13,0.11c-0.39-0.11-0.69-0.32-0.88-0.65c-0.15-0.28-0.15-0.6-0.01-0.96
				C632.62,425.8,632.85,425.49,633.18,425.25z"/>
			<path d="M669.16,425.2c1.53-1.14,3.43-1.67,5.68-1.59c1.04,0.03,2.03,0.23,2.95,0.6c0.92,0.37,1.68,0.89,2.27,1.58
				c1.14,1.32,1.68,2.86,1.62,4.6c-0.08,2.14-1.07,3.74-2.96,4.8c-1.08,0.6-2.64,0.78-4.68,0.54c-0.77-0.08-1.49-0.23-2.15-0.44
				c-0.57-0.2-0.93,0.03-1.08,0.66c-0.83,3.48-2.05,6.95-3.65,10.41c0.88-0.51,1.63-0.95,2.25-1.35c0.8-0.51,1.29-0.7,1.47-0.57
				c0.18,0.12,0.03,0.61-0.44,1.46c-0.44,0.75-1.53,1.76-3.28,3.01c-1.16,0.83-2.24,1.23-3.23,1.2c-0.34-0.02-0.58-0.23-0.71-0.65
				c-0.13-0.42-0.15-0.78-0.05-1.09c0.18-0.56,0.54-1.42,1.09-2.6c0.55-1.18,0.93-2.04,1.14-2.6c0.86-2.2,1.45-3.85,1.76-4.92
				c0.51-1.8,0.89-3.09,1.15-3.87c0.23-0.64,0.56-1.15,0.98-1.54c0.42-0.39,0.91-0.52,1.44-0.39c0.29,0.07,0.66,0.16,1.1,0.28
				s0.78,0.21,1,0.27c0.23,0.06,0.55,0.13,0.96,0.21c0.41,0.08,0.73,0.11,0.97,0.1c0.24-0.02,0.58-0.03,1.04-0.05
				c0.69-0.1,1.3-0.35,1.85-0.77c0.55-0.42,0.9-0.93,1.07-1.55c0.15-0.54,0.13-1.12-0.06-1.74c-0.19-0.62-0.54-1.16-1.04-1.62
				c-0.98-0.88-2.28-1.22-3.89-1.03c-1.11,0.13-2.13,0.51-3.06,1.13c-0.31,0.21-0.68,0.28-1.11,0.22c-0.43-0.07-0.76-0.27-0.97-0.61
				c-0.2-0.24-0.25-0.58-0.16-1C668.5,425.85,668.75,425.49,669.16,425.2z"/>
			<path d="M685.78,430.56c0.13-0.21,0.3-0.51,0.5-0.89c0.2-0.38,0.36-0.71,0.48-0.97l0.2-0.42l2.79-6.76
				c1.09-2.58,2.02-4.42,2.79-5.51c1.48-2.14,3.21-3.56,5.19-4.26c1.09-0.39,2.16-0.54,3.2-0.45c1.03,0.09,1.95,0.44,2.75,1.04
				c0.33,0.24,0.59,0.57,0.79,0.97c0.2,0.4,0.21,0.68,0.05,0.84c-0.18,0.18-0.39,0.28-0.64,0.29c-0.24,0.02-0.46-0.01-0.63-0.09
				c-0.18-0.07-0.41-0.19-0.69-0.36c-0.55-0.33-1.12-0.51-1.7-0.54c-0.58-0.03-1.25,0.07-2,0.32c-0.98,0.31-1.86,0.93-2.64,1.86
				c-0.21,0.25-0.43,0.53-0.65,0.85c-0.22,0.32-0.45,0.68-0.67,1.09c-0.23,0.41-0.43,0.78-0.61,1.11c-0.18,0.33-0.4,0.77-0.65,1.31
				c-0.25,0.54-0.45,0.96-0.59,1.26c-0.14,0.3-0.34,0.76-0.6,1.38c-0.26,0.62-0.44,1.04-0.53,1.26s-0.27,0.66-0.54,1.32
				c-0.27,0.66-0.43,1.04-0.48,1.14c-0.42,1.03-0.95,2.24-1.58,3.62c-0.63,1.39-1.11,2.36-1.43,2.91c-0.26,0.46-0.49,0.84-0.69,1.14
				c-0.2,0.3-0.47,0.66-0.83,1.07c-0.36,0.41-0.75,0.76-1.18,1.05c-0.44,0.31-0.94,0.5-1.49,0.56c-0.56,0.07-0.98,0-1.27-0.2
				c-0.47-0.29-0.64-0.98-0.49-2.06c0.11-0.83,0.52-1.6,1.22-2.3C684.04,431.3,684.92,430.76,685.78,430.56z"/>
			<path d="M706.99,431.84c0.26,0.21,0.39,0.51,0.39,0.89c0,0.38-0.09,0.68-0.27,0.89c-0.41,0.56-1.02,1.07-1.83,1.54
				c-0.92,0.52-2.15,0.9-3.7,1.14c-1.55,0.24-2.93,0.26-4.14,0.06c-1.46-0.24-2.6-0.9-3.45-1.96c-0.38-0.47-0.67-1.08-0.87-1.82
				c-0.21-0.74-0.29-1.48-0.26-2.22c0.07-1.31,0.56-2.61,1.5-3.92c0.75-1.05,1.89-1.88,3.43-2.52c1.23-0.51,2.64-0.62,4.24-0.34
				c1.13,0.2,1.89,0.69,2.3,1.49c0.52,1.04,0.47,2.2-0.15,3.45c-0.46,0.95-1.2,1.8-2.23,2.57c-1.03,0.77-2.62,1.54-4.78,2.33
				c0.33,0.24,0.88,0.39,1.66,0.43c0.79,0.04,1.42,0,1.91-0.11c1.65-0.28,3.07-0.82,4.26-1.62
				C705.87,431.56,706.53,431.46,706.99,431.84z M695.75,431.5c2.09-0.74,3.59-1.49,4.51-2.25c0.59-0.49,1.01-0.97,1.28-1.45
				c0.26-0.47,0.36-0.85,0.31-1.14c-0.06-0.29-0.22-0.46-0.5-0.53c-0.48-0.16-1.09-0.18-1.84-0.05c-0.75,0.13-1.39,0.43-1.94,0.88
				C695.93,428.3,695.32,429.81,695.75,431.5z"/>
			<path d="M729.58,427.41c0-0.28,0.06-0.49,0.17-0.63c0.11-0.14,0.24-0.24,0.39-0.29c0.15-0.06,0.24-0.1,0.27-0.14
				c0.56-0.72,1.06-1.23,1.52-1.54c0.95-0.65,2.05-1.04,3.31-1.15c1.26-0.11,2.45,0.05,3.58,0.49c0.64,0.25,1.22,0.65,1.76,1.22
				c0.54,0.57,0.91,1.22,1.1,1.94c0.31,1.14,0.38,2.24,0.22,3.28c-0.16,1.05-0.58,2.15-1.25,3.33c-0.46,0.83-0.99,1.56-1.59,2.18
				c-0.2,0.23-0.44,0.41-0.73,0.55c-0.29,0.14-0.56,0.13-0.81-0.01c-0.26-0.15-0.41-0.38-0.45-0.69c-0.04-0.31,0.02-0.6,0.18-0.86
				c0.31-0.54,0.63-1.13,0.96-1.76c0.34-0.69,0.61-1.35,0.8-2c0.19-0.65,0.26-1.33,0.22-2.06c-0.04-0.73-0.27-1.34-0.67-1.82
				c-0.44-0.52-1.11-0.85-2-0.98c-0.89-0.13-1.71-0.03-2.46,0.29c-0.74,0.33-1.29,0.79-1.67,1.4c-0.03,0.03-0.07,0.09-0.12,0.16
				c-0.05,0.07-0.08,0.13-0.1,0.16c-0.02,0.03-0.04,0.08-0.07,0.14c-0.03,0.06-0.05,0.11-0.06,0.17c-0.01,0.06,0,0.12,0.01,0.18
				c0.06,1.03-0.04,2.07-0.32,3.11c-0.33,1.22-0.81,2.22-1.44,3c-0.64,0.78-1.53,1.42-2.69,1.95c-0.57,0.24-1.29,0.38-2.16,0.42
				c-0.86,0.03-1.56-0.03-2.08-0.2c-0.47-0.13-0.83-0.32-1.08-0.58c-0.24-0.25-0.33-0.54-0.27-0.87c0.07-0.26,0.26-0.46,0.59-0.59
				c0.33-0.13,0.73-0.16,1.2-0.1c1.35,0.2,2.5-0.04,3.43-0.71c1.17-0.83,1.92-1.98,2.23-3.43c0.08-0.39,0.13-0.78,0.15-1.16
				c0.02-0.38,0.01-0.8-0.01-1.26C729.59,428.1,729.58,427.72,729.58,427.41z"/>
			<path d="M745.21,426.91c-0.38-0.46-0.32-0.95,0.16-1.48c0.48-0.53,1.08-0.92,1.8-1.16c1.49-0.51,2.91-0.76,4.29-0.76
				c2.17,0,3.79,0.59,4.85,1.76c0.65,0.73,1.07,1.62,1.26,2.66c0.19,1.04,0.09,2.07-0.28,3.1c-0.62,1.67-1.66,2.96-3.11,3.9
				c-1.73,1.09-3.58,1.64-5.56,1.64c-1.98,0-3.38-0.49-4.21-1.47c-0.72-0.85-0.9-1.84-0.54-2.99c0.44-1.37,1.33-2.28,2.67-2.72
				c0.49-0.16,1.02-0.27,1.58-0.33c0.56-0.06,1.03-0.04,1.41,0.04c0.59,0.13,1.06,0.36,1.42,0.7c0.36,0.33,0.46,0.67,0.32,0.99
				c-0.15,0.31-0.33,0.54-0.55,0.69c-0.22,0.15-0.46,0.22-0.72,0.22s-0.54,0-0.84-0.01c-0.3-0.01-0.61,0-0.92,0.01
				c-0.44,0.05-0.82,0.15-1.14,0.32c-0.32,0.16-0.53,0.38-0.63,0.64c-0.15,0.44-0.03,0.8,0.36,1.06c0.38,0.27,0.85,0.41,1.4,0.43
				c0.55,0.02,1.06-0.02,1.53-0.1c1.71-0.41,3.08-1.25,4.11-2.52c0.49-0.6,0.78-1.29,0.88-2.06c0.1-0.77,0-1.38-0.29-1.84
				c-0.23-0.38-0.5-0.64-0.8-0.81c-0.3-0.16-0.77-0.3-1.41-0.42c-1.18-0.2-2.34-0.07-3.48,0.39c-0.61,0.25-1.12,0.42-1.54,0.51
				c-0.42,0.1-0.82,0.12-1.17,0.07C745.68,427.33,745.4,427.18,745.21,426.91z"/>
			<path d="M771.24,418.83c1.16-0.2,1.84,0.03,2.03,0.69c0.1,0.31-0.03,0.6-0.37,0.88c-0.34,0.28-0.75,0.47-1.22,0.59
				c-1.21,0.31-2.41,0.8-3.6,1.47c-0.74,0.43-1.39,0.87-1.96,1.35c-0.57,0.47-1.13,1.08-1.69,1.81c-1.17,1.57-1.84,3.18-2.01,4.85
				c-0.07,0.57,0.02,1.14,0.24,1.69s0.62,0.96,1.17,1.22c0.51,0.26,1.22,0.3,2.13,0.12c0.92-0.18,1.77-0.56,2.57-1.15
				c0.57-0.42,1.18-0.96,1.81-1.62c0.64-0.65,1.04-1.13,1.2-1.42c0.21-0.39,0.5-0.69,0.86-0.88c0.36-0.2,0.71-0.2,1.05-0.03
				c0.29,0.15,0.5,0.36,0.61,0.63c0.11,0.27,0.15,0.54,0.11,0.82c-0.04,0.28-0.13,0.54-0.28,0.78c-0.85,1.4-1.85,2.58-2.99,3.53
				c-0.92,0.77-1.92,1.36-3.02,1.78c-1.1,0.42-2.2,0.62-3.29,0.6c-0.98-0.02-1.87-0.26-2.68-0.72c-0.81-0.47-1.43-1.15-1.87-2.05
				c-0.69-1.39-0.74-3.17-0.15-5.34c0.52-1.96,1.47-3.62,2.84-5c1.55-1.55,3.2-2.71,4.95-3.48
				C768.97,419.39,770.16,419.01,771.24,418.83z"/>
			<path d="M784.41,421.77c0.38-0.28,0.77-0.44,1.19-0.49c0.42-0.05,0.76,0.06,1.04,0.32c0.26,0.34,0.35,0.71,0.26,1.09
				c-0.09,0.39-0.32,0.73-0.67,1.04l-1.18,1.08c1.75,1.01,2.64,2.35,2.67,4.02c0.03,1.75-0.51,3.2-1.62,4.36
				c-0.88,0.92-1.8,1.62-2.74,2.11c-1.29,0.65-2.61,1.06-3.97,1.22c-0.93,0.11-1.71,0.09-2.35-0.06c-0.64-0.16-1.13-0.54-1.47-1.16
				c-0.38-0.65-0.23-1.68,0.44-3.08c0.46-0.93,1.08-2.01,1.87-3.23c0.79-1.22,1.58-2.27,2.36-3.13c-0.87-0.2-1.89-0.29-3.06-0.29
				c-0.26,0-0.55,0-0.87,0.01c-0.32,0.01-0.54,0.01-0.66,0.01c-0.12,0-0.25-0.01-0.38-0.02c-0.13-0.02-0.25-0.05-0.34-0.1
				c-0.52-0.26-0.6-0.63-0.22-1.1c0.33-0.41,0.77-0.65,1.35-0.74c1.34-0.21,2.56-0.29,3.67-0.25c0.75,0.03,1.58,0.16,2.5,0.37
				c0.21-0.2,0.56-0.52,1.05-0.98C783.78,422.3,784.15,421.97,784.41,421.77z M783.09,426.72c-1.62,1.7-2.91,3.54-3.87,5.51
				c-0.2,0.42-0.25,0.77-0.16,1.05c0.09,0.28,0.27,0.42,0.53,0.42c0.72,0,1.59-0.3,2.62-0.91c0.56-0.33,1.06-0.75,1.52-1.26
				c0.46-0.51,0.77-1.02,0.95-1.53c0.23-0.62,0.16-1.28-0.2-1.98C784.13,427.32,783.66,426.88,783.09,426.72z"/>
			<path d="M787.99,434.85c0.2-0.44,0.36-0.81,0.5-1.11c0.14-0.3,0.29-0.62,0.45-0.94c0.16-0.33,0.31-0.63,0.44-0.91
				c0.15-0.33,0.36-0.8,0.65-1.42c0.29-0.62,0.5-1.08,0.64-1.37c0.14-0.29,0.33-0.64,0.56-1.05s0.48-0.78,0.72-1.1
				c0.28-0.38,0.63-0.63,1.07-0.77c0.43-0.14,0.88-0.11,1.34,0.07c0.46,0.19,0.83,0.54,1.13,1.07c0.16,0.28,0.39,0.69,0.67,1.22
				c0.28,0.54,0.52,0.97,0.7,1.28c0.18,0.32,0.41,0.72,0.7,1.21c0.29,0.49,0.57,0.97,0.87,1.45c0.13,0.21,0.27,0.34,0.43,0.38
				c0.15,0.04,0.3,0.01,0.43-0.1c0.13-0.11,0.25-0.22,0.36-0.36c0.11-0.13,0.2-0.28,0.28-0.44c0.28-0.55,1.12-2.33,2.54-5.34
				c1.41-3.01,2.18-4.64,2.31-4.92c0.29-0.6,0.66-1.02,1.09-1.24s0.84-0.24,1.21-0.06c0.36,0.16,0.59,0.43,0.7,0.81
				s0.03,0.87-0.23,1.49c-2.11,4.36-3.85,8.16-5.22,11.41c-0.65,1.57-1.68,2.35-3.08,2.35c-0.59,0-1.15-0.17-1.69-0.51
				c-0.54-0.34-0.99-0.82-1.35-1.42c-0.74-1.22-1.45-2.54-2.13-3.94c-0.11-0.23-0.29-0.35-0.51-0.37c-0.23-0.02-0.39,0.07-0.49,0.27
				c-0.28,0.47-0.74,1.33-1.37,2.57c-0.64,1.24-1.13,2.13-1.47,2.67c-0.2,0.31-0.45,0.53-0.75,0.67c-0.3,0.14-0.61,0.14-0.92,0.01
				c-0.28-0.13-0.47-0.37-0.57-0.71C787.87,435.36,787.87,435.08,787.99,434.85z"/>
			<path d="M808.73,425.94c2.47-1.44,4.9-2.15,7.3-2.13c2.32,0.03,4.12,0.67,5.41,1.91c1.58,1.52,2.31,3.32,2.18,5.41
				c-0.07,0.96-0.26,1.84-0.59,2.62s-0.68,1.4-1.05,1.86c-0.28,0.34-0.62,0.61-1.02,0.8c-0.4,0.19-0.72,0.22-0.97,0.11
				c-0.31-0.13-0.5-0.35-0.55-0.66c-0.06-0.31,0.02-0.62,0.23-0.93c0.7-0.96,1.11-1.89,1.22-2.77c0.15-1.01,0.01-1.96-0.42-2.85
				c-0.43-0.89-1.11-1.59-2.06-2.09c-0.54-0.28-1.16-0.44-1.87-0.49c-0.71-0.05-1.29-0.03-1.75,0.05c-0.46,0.08-1.05,0.21-1.79,0.39
				c-0.51,0.13-1.49,0.54-2.96,1.22c-0.43,0.2-0.82,0.25-1.19,0.17c-0.37-0.08-0.63-0.28-0.77-0.59c-0.18-0.36-0.21-0.74-0.09-1.13
				C808.13,426.45,808.37,426.15,808.73,425.94z M811.08,431.23c0.33-0.41,0.82-0.59,1.49-0.54c0.64,0.05,1.19,0.33,1.67,0.86
				c0.62,0.69,0.73,1.56,0.32,2.62c-0.23,0.59-0.66,1.14-1.3,1.67c-0.44,0.36-0.86,0.54-1.26,0.54s-0.66-0.13-0.77-0.4
				c-0.11-0.27-0.11-0.57,0.03-0.92c0.08-0.16,0.19-0.34,0.32-0.53c0.13-0.19,0.23-0.33,0.29-0.44s0.11-0.22,0.15-0.35
				c0.03-0.13,0-0.26-0.1-0.38c-0.1-0.12-0.26-0.25-0.49-0.38c-0.25-0.15-0.41-0.4-0.49-0.76
				C810.85,431.85,810.9,431.52,811.08,431.23z"/>
		</g>
		<g>
			<path class="st0" d="M657.64,328.58c-0.09-0.01-6.93,0.02-16.04-6.88c-8.83-6.69-18.22-21.65-20.95-33.37l-0.73-63.97h-16.71
				v2.36h0.75c0.19,0,4.75,0.04,4.99,3.84v56.2l0.11,0.18c0.04,0.07,4.05,6.66,7.44,13.16c0.25,0.48,0.54,1.06,0.87,1.74
				c4.05,8.17,14.26,28.76,34.62,28.76c1.84,0,3.77-0.17,5.78-0.53L657.64,328.58z"/>
			<linearGradient id="SVGID_1_" gradientUnits="userSpaceOnUse" x1="566.1566" y1="279.0743" x2="652.0584" y2="354.5817">
				<stop  offset="0.1648" style="stop-color:#CE9968"/>
				<stop  offset="0.5223" style="stop-color:#A67649"/>
				<stop  offset="0.7346" style="stop-color:#94673B"/>
			</linearGradient>
			<path class="st1" d="M552.56,279.89c1.23-0.66,2.7-0.78,4.11-0.79c1.42,0,2.83,0.21,4.22,0.49c2.75,0.62,5.41,1.6,7.91,2.8
				c5.01,2.4,9.56,5.53,13.74,8.97c4.21,3.42,8.02,7.24,11.61,11.17l5.17,5.93c1.67,1.98,3.32,3.95,4.98,5.86
				c1.64,1.92,3.28,3.8,4.97,5.6c1.66,1.82,3.36,3.55,5.13,5.16c3.49,3.28,7.24,6.08,11.39,8.23c4.15,2.17,8.74,3.62,13.64,4.44
				c4.91,0.82,10.08,0.94,15.41,0.92c-2.41,1.14-4.9,2.13-7.5,2.86c-2.59,0.78-5.28,1.29-8.03,1.59c-5.49,0.58-11.3,0.13-16.8-1.64
				c-2.76-0.84-5.42-2.01-7.95-3.36c-2.52-1.37-4.89-2.97-7.15-4.65c-2.23-1.72-4.35-3.54-6.33-5.43c-1.97-1.91-3.86-3.85-5.67-5.82
				c-1.79-1.99-3.52-3.98-5.23-5.95l-4.99-5.91c-3.25-3.91-6.52-7.73-9.82-11.51c-3.31-3.78-6.7-7.44-10.31-10.87
				c-0.9-0.86-1.83-1.67-2.77-2.5c-0.95-0.78-1.91-1.59-2.93-2.31c-1.01-0.73-2.06-1.41-3.17-2
				C555.06,280.61,553.9,280.05,552.56,279.89z"/>
			<linearGradient id="SVGID_2_" gradientUnits="userSpaceOnUse" x1="562.4246" y1="244.6563" x2="630.6754" y2="320.5559">
				<stop  offset="0" style="stop-color:#89684E"/>
				<stop  offset="0.1677" style="stop-color:#8E6C50"/>
				<stop  offset="0.3045" style="stop-color:#926F51"/>
				<stop  offset="0.9134" style="stop-color:#C1945F"/>
			</linearGradient>
			<path class="st2" d="M564.05,253.08c2.65-1.04,5.62-1.31,8.55-1.1c2.94,0.22,5.88,0.99,8.64,2.18c1.38,0.61,2.72,1.32,4,2.11
				c0.65,0.39,1.25,0.84,1.88,1.27c0.61,0.45,1.21,0.91,1.8,1.38c0.56,0.5,1.14,0.99,1.69,1.5c0.54,0.52,1.09,1.04,1.61,1.58
				l1.51,1.67l1.42,1.74c0.91,1.18,1.76,2.4,2.56,3.65c0.82,1.24,1.55,2.52,2.24,3.82c1.42,2.63,2.51,5.16,3.62,7.73
				c2.22,5.09,4.27,10.1,6.54,14.95c4.5,9.68,9.8,18.83,17.33,26c3.75,3.58,8.05,6.61,12.8,9.01c4.75,2.4,9.95,4.11,15.37,5.4
				c-5.55,0.38-11.26-0.15-16.78-1.74c-5.53-1.57-10.84-4.21-15.53-7.71c-4.72-3.48-8.79-7.78-12.27-12.41
				c-3.48-4.64-6.37-9.63-8.9-14.7c-2.52-5.07-4.7-10.24-6.8-15.29c-1.06-2.5-2.12-5.04-3.18-7.33c-0.25-0.6-0.57-1.15-0.84-1.73
				c-0.27-0.58-0.56-1.16-0.87-1.71c-0.58-1.14-1.25-2.21-1.89-3.31c-2.66-4.3-5.89-8.2-9.95-11.22
				C574.56,255.81,569.65,253.6,564.05,253.08z"/>
			<path class="st0" d="M679.13,248.6c-0.78-4.81-2.62-9.41-5.31-13.28c-2.77-4.01-6.42-7.24-10.56-9.34
				c-1.07-0.54-2.17-1.01-3.27-1.38c-0.6-0.2-1.16-0.37-1.69-0.51c-0.56-0.15-1.1-0.27-1.66-0.38c-2.17-0.44-4.41-0.67-6.66-0.69
				c-4.21-0.01-8.51,0.67-12.81,2.09c-2,0.66-3.98,1.46-5.9,2.39c-2.12,1.04-3.91,2.08-5.47,3.17c0,0,12.87-4.87,23.8-2.61
				c1.87,0.39,3.73,0.75,5.47,1.38c0.44,0.16,0.88,0.33,1.3,0.5c0.41,0.17,0.81,0.36,1.2,0.55c0.76,0.38,1.52,0.84,2.25,1.35
				c2.81,1.96,5.14,4.69,6.74,7.88c1.53,3.02,2.37,6.45,2.44,9.91c0.07,3.32-0.54,6.67-1.83,9.96c-1.19,3.06-2.96,6.06-5.27,8.92
				c-1.21,1.5-2.57,2.97-4.08,4.41c-0.85,1.02-2.44,2.38-4.11,3.7l8.38,10.07l0.58-0.61c0.5-0.53,1.17-1.15,1.94-1.88
				c4.05-3.79,10.84-10.14,13.94-21.17C679.68,258.19,679.89,253.21,679.13,248.6z"/>
			<linearGradient id="SVGID_3_" gradientUnits="userSpaceOnUse" x1="641.0619" y1="307.7027" x2="725.7729" y2="307.7027">
				<stop  offset="0.2318" style="stop-color:#BF8155"/>
				<stop  offset="0.8296" style="stop-color:#9D7244"/>
			</linearGradient>
			<path class="st3" d="M725.66,318.91c-0.1-0.82-0.24-1.63-0.44-2.44c-0.39-1.61-1.02-3.17-1.87-4.58
				c-1.69-2.86-4.37-4.99-7.29-6.11c-2.92-1.15-6.03-1.39-9-1.15l0,0.13c2.96,0.22,5.88,0.96,8.32,2.42
				c2.45,1.43,4.34,3.58,5.31,6.06c0.49,1.24,0.78,2.54,0.89,3.86c0.11,1.32,0.05,2.69-0.2,3.88c-0.54,2.5-1.77,4.95-3.35,6.98
				c-1.58,2.04-3.55,3.67-5.69,4.68c-2.14,1.01-4.44,1.38-6.75,1.23c-2.32-0.18-4.66-0.83-6.93-1.89c-0.57-0.28-1.14-0.52-1.7-0.85
				l-0.84-0.46c-0.28-0.15-0.49-0.3-0.74-0.44c-0.97-0.61-1.95-1.35-2.92-2.18c-3.88-3.32-7.44-7.7-10.72-12.25
				c-3.29-4.59-6.33-9.45-9.22-14.44c-2.89-4.99-5.62-10.11-8.22-15.29c-1.3-2.59-2.57-5.2-3.8-7.82l-1.82-3.93
				c-0.24-0.53-0.48-1.06-0.72-1.6c-3.59,3.5-9.75,8.79-16.91,11.89l2.11,3.31c1.66,2.57,3.36,5.12,5.08,7.65
				c3.45,5.05,7.04,10.03,10.8,14.89c3.77,4.87,7.73,9.63,12.04,14.2c2.16,2.28,4.41,4.51,6.82,6.65c2.4,2.14,4.98,4.19,7.86,6.04
				c1.44,0.92,2.97,1.78,4.65,2.53c0.42,0.18,0.86,0.38,1.26,0.53l1.21,0.42c0.79,0.3,1.64,0.52,2.46,0.76
				c3.32,0.92,6.94,1.35,10.57,1c3.63-0.36,7.24-1.63,10.19-3.71c2.96-2.07,5.25-4.8,6.86-7.78c1.6-2.99,2.61-6.21,2.79-9.62
				C725.79,320.63,725.77,319.7,725.66,318.91z"/>
		</g>
		<linearGradient id="SVGID_4_" gradientUnits="userSpaceOnUse" x1="465.8422" y1="486.6476" x2="812.3135" y2="486.6476">
			<stop  offset="0.2318" style="stop-color:#BF8155"/>
			<stop  offset="0.8296" style="stop-color:#9D7244"/>
		</linearGradient>
		<path class="st4" d="M812.31,450.89H773.5h-9.77h-0.17l-0.07,0.32c-28.98,39.67-75,63.19-124.32,63.19
			c-49.45,0-95.59-23.64-124.56-63.51h-9.77h-38.99l52.47,17.35l-0.01-0.03c30.52,34.26,74.3,54.2,120.86,54.2
			c46.58,0,90.37-19.95,120.9-54.24L812.31,450.89z"/>
		<g>
			<linearGradient id="SVGID_5_" gradientUnits="userSpaceOnUse" x1="623.7054" y1="471.0452" x2="656.2227" y2="471.0452">
				<stop  offset="0" style="stop-color:#89684E"/>
				<stop  offset="0.1677" style="stop-color:#8E6C50"/>
				<stop  offset="0.3045" style="stop-color:#926F51"/>
				<stop  offset="0.9134" style="stop-color:#C1945F"/>
			</linearGradient>
			<polygon class="st5" points="639.96,455.58 643.8,467.39 656.22,467.39 646.17,474.7 650.01,486.51 639.96,479.21 629.92,486.51 
				633.75,474.7 623.71,467.39 636.13,467.39 			"/>
			<linearGradient id="SVGID_6_" gradientUnits="userSpaceOnUse" x1="597.5635" y1="471.0452" x2="620.6154" y2="471.0452">
				<stop  offset="0" style="stop-color:#89684E"/>
				<stop  offset="0.1677" style="stop-color:#8E6C50"/>
				<stop  offset="0.3045" style="stop-color:#926F51"/>
				<stop  offset="0.9134" style="stop-color:#C1945F"/>
			</linearGradient>
			<polygon class="st6" points="609.09,460.08 611.81,468.46 620.62,468.46 613.49,473.63 616.21,482.01 609.09,476.83 
				601.97,482.01 604.69,473.63 597.56,468.46 606.37,468.46 			"/>
			<linearGradient id="SVGID_7_" gradientUnits="userSpaceOnUse" x1="580.446" y1="471.0452" x2="597.1072" y2="471.0452">
				<stop  offset="0" style="stop-color:#89684E"/>
				<stop  offset="0.1677" style="stop-color:#8E6C50"/>
				<stop  offset="0.3045" style="stop-color:#926F51"/>
				<stop  offset="0.9134" style="stop-color:#C1945F"/>
			</linearGradient>
			<polygon class="st7" points="588.78,463.12 590.74,469.17 597.11,469.17 591.96,472.92 593.93,478.97 588.78,475.23 
				583.63,478.97 585.59,472.92 580.45,469.17 586.81,469.17 			"/>
			
				<linearGradient id="SVGID_8_" gradientUnits="userSpaceOnUse" x1="-1720.1211" y1="471.0452" x2="-1697.0692" y2="471.0452" gradientTransform="matrix(-1 0 0 1 -1037.6016 0)">
				<stop  offset="0" style="stop-color:#89684E"/>
				<stop  offset="0.1677" style="stop-color:#8E6C50"/>
				<stop  offset="0.3045" style="stop-color:#926F51"/>
				<stop  offset="0.9134" style="stop-color:#C1945F"/>
			</linearGradient>
			<polygon class="st8" points="670.99,460.08 668.27,468.46 659.47,468.46 666.59,473.63 663.87,482.01 670.99,476.83 
				678.12,482.01 675.4,473.63 682.52,468.46 673.71,468.46 			"/>
			
				<linearGradient id="SVGID_9_" gradientUnits="userSpaceOnUse" x1="-1737.2385" y1="471.0452" x2="-1720.5774" y2="471.0452" gradientTransform="matrix(-1 0 0 1 -1037.6016 0)">
				<stop  offset="0" style="stop-color:#89684E"/>
				<stop  offset="0.1677" style="stop-color:#8E6C50"/>
				<stop  offset="0.3045" style="stop-color:#926F51"/>
				<stop  offset="0.9134" style="stop-color:#C1945F"/>
			</linearGradient>
			<polygon class="st9" points="691.31,463.12 689.34,469.17 682.98,469.17 688.12,472.92 686.16,478.97 691.31,475.23 
				696.45,478.97 694.49,472.92 699.64,469.17 693.27,469.17 			"/>
		</g>
		<linearGradient id="SVGID_10_" gradientUnits="userSpaceOnUse" x1="450.7729" y1="271.3901" x2="829.2271" y2="271.3901">
			<stop  offset="0.2318" style="stop-color:#BF8155"/>
			<stop  offset="0.8296" style="stop-color:#9D7244"/>
		</linearGradient>
		<path class="st10" d="M798.29,329.63c-6.09-32.76-22.14-62.84-46.5-86.44c-30.35-29.4-70.35-45.6-112.62-45.6
			c-42.27,0-82.27,16.19-112.62,45.6c-24.61,23.84-40.74,54.29-46.68,87.44l-8.43,4.11l-20.66,10.44c0,0,35.59,0,35.59,0
			c0.53-15.75,4.92-31.51,11.03-46c5.67-13.45,13.29-26.08,22.53-37.38c9.17-11.21,19.94-21.11,31.89-29.31
			c12.08-8.29,25.36-14.83,39.3-19.35c14.45-4.69,29.57-7.2,44.76-7.51c1.1-0.02,2.19-0.03,3.29-0.03c15.17,0,30.33,2.18,44.86,6.55
			c14.06,4.23,27.5,10.49,39.78,18.54c12.12,7.95,23.1,17.62,32.52,28.64c9.47,11.09,17.34,23.54,23.3,36.86
			c6.9,15.42,11.76,32.05,12.34,48.99l1.67-0.06l0,0.06h35.59L798.29,329.63z"/>
	</g>
	<path class="st0" d="M601.32,362.78c1.55,0,2.91-0.57,4.04-1.7c1.13-1.13,1.7-2.49,1.7-4.04c0-1.55-0.57-2.91-1.7-4.04
		c-1.13-1.13-2.49-1.7-4.04-1.7c-1.55,0-2.91,0.57-4.04,1.7c-1.13,1.13-1.7,2.49-1.7,4.04c0,1.56,0.57,2.92,1.7,4.04
		C598.4,362.21,599.76,362.78,601.32,362.78z"/>
	<path class="st0" d="M506.67,402.78c-0.07-1.77-0.11-3.14-0.11-4.07c0-2.52,0.07-4.57,0.22-6.09l0.14-1.41h-4.33l-0.11,1.17
		c-0.25,2.55-0.59,4.73-1.03,6.48c-0.41,1.62-1,2.92-1.76,3.85c-0.73,0.9-1.71,1.55-2.97,1.98c-1.35,0.46-3.16,0.69-5.38,0.69h-5.53
		c-1.58,0-2.76-0.12-3.51-0.36c-0.49-0.15-0.77-0.44-0.94-0.96c-0.18-0.53-0.39-1.6-0.39-3.68v-37.56c0-2.14,0.21-3.2,0.38-3.71
		c0.18-0.52,0.49-0.83,1.01-1.03c0.51-0.19,1.53-0.43,3.49-0.49l1.25-0.04v-4.11l-1.35,0.06c-1.19,0.05-2.65,0.1-4.34,0.15
		c-1.71,0.05-3.47,0.08-5.23,0.08c-1.96,0-3.8-0.03-5.49-0.08c-1.67-0.05-3.07-0.1-4.14-0.15l-1.35-0.06v4.12l1.25,0.04
		c1.57,0.05,2.74,0.21,3.49,0.49c0.52,0.19,0.83,0.51,1.01,1.03c0.18,0.51,0.38,1.57,0.38,3.71v37.56c0,2.08-0.21,3.15-0.39,3.68
		c-0.17,0.52-0.48,0.83-0.97,1.01c-0.77,0.26-1.97,0.45-3.56,0.54l-1.21,0.07v4.05l1.32-0.04c1.85-0.05,3.83-0.09,5.89-0.11
		c2.07-0.02,4.12-0.05,6.13-0.08c2.08-0.03,3.92-0.04,5.63-0.04h4.28c2.46,0,5.28,0.01,8.62,0.04c3.21,0.03,6.13,0.09,8.67,0.19
		l1.49,0.06l-0.16-1.48C506.88,406.39,506.74,404.54,506.67,402.78z"/>
	<path class="st0" d="M546.69,404.47c-0.65-0.85-0.98-2.28-0.98-4.25V366.8l-1.68,0.54c-1.03,0.33-2.19,0.58-3.45,0.75
		c-2.61,0.35-5.55,0.32-8.61,0.03l-1.41-0.13v4.3h1.29c1.78,0,2.96,0.37,3.51,1.11c0.64,0.86,0.96,2.29,0.96,4.27v15.68
		c0,2.39-0.41,4.56-1.22,6.46c-0.79,1.86-1.89,3.34-3.25,4.42c-1.32,1.04-2.78,1.54-4.47,1.54c-1.44,0-2.48-0.29-3.03-0.84
		c-0.61-0.61-0.99-1.42-1.15-2.46c-0.19-1.24-0.29-2.63-0.29-4.12V366.8l-1.68,0.54c-1.03,0.33-2.19,0.58-3.45,0.75
		c-2.61,0.35-5.55,0.32-8.61,0.03l-1.41-0.13v4.3h1.29c1.78,0,2.96,0.37,3.51,1.11c0.64,0.86,0.96,2.29,0.96,4.27v19.01
		c0,2.46,0.19,4.56,0.56,6.26c0.4,1.84,1.17,3.37,2.29,4.55c0.99,1.05,2.24,1.87,3.73,2.44c1.46,0.56,3.17,0.84,5.08,0.84
		c2.65,0,5.26-0.76,7.75-2.27c1.27-0.77,2.4-1.8,3.38-3.08v5.75l1.73-0.63c1.01-0.37,2.14-0.62,3.38-0.76c2.66-0.3,5.7-0.28,8.63,0
		l1.41,0.14v-4.3h-1.29C548.43,405.59,547.26,405.22,546.69,404.47z"/>
	<path class="st0" d="M605.58,404.69c-0.56-0.48-0.88-1.67-0.88-3.34V366.8l-1.68,0.54c-1.03,0.33-2.19,0.58-3.45,0.75
		c-2.61,0.35-5.55,0.32-8.61,0.03l-1.41-0.13v4.3h1.29c1.78,0,2.96,0.37,3.51,1.11c0.64,0.86,0.96,2.29,0.96,4.27v23.7
		c0,1.67-0.31,2.85-0.87,3.34c-0.44,0.38-1.42,0.83-3.59,0.83h-1.29v4.25l1.36-0.08c0.88-0.05,2.19-0.11,3.92-0.19
		c3.53-0.15,7-0.15,10.38,0c1.7,0.07,3,0.14,3.88,0.19l1.36,0.08v-4.25h-1.29C607,405.52,606.02,405.07,605.58,404.69z"/>
	<path class="st0" d="M646.68,403.82c-0.64,0.5-1.17,0.86-1.6,1.07c-0.33,0.16-0.66,0.24-1.01,0.24c-0.53,0-0.65-0.18-0.71-0.27
		c-0.1-0.15-0.34-0.65-0.34-2v-21.05c0-2.51-0.21-4.71-0.64-6.54c-0.46-1.99-1.46-3.7-2.94-5.07c-1.09-1.04-2.48-1.83-4.12-2.37
		c-1.59-0.52-3.51-0.78-5.7-0.78c-2.44,0-4.67,0.31-6.64,0.93c-1.96,0.62-3.59,1.38-4.86,2.26c-1.1,0.77-2.03,1.62-2.76,2.51
		c-0.84,1.04-1.27,2.38-1.27,3.99c0,1.44,0.43,2.75,1.27,3.9c0.93,1.28,2.37,1.93,4.26,1.93c1.59,0,2.92-0.48,3.97-1.43
		c1.09-0.98,1.64-2.31,1.64-3.95c0-1.58-0.46-2.91-1.38-3.96c-0.35-0.4-0.74-0.75-1.15-1.04c0.43-0.25,0.9-0.44,1.43-0.57
		c2.68-0.66,5.05-0.65,6.87,0c0.77,0.27,1.37,0.82,1.85,1.66c0.52,0.91,0.78,2.33,0.78,4.21v5.5l-0.55,0.56
		c-0.13,0.14-0.28,0.26-0.44,0.37c-0.93,0.63-2.16,1.2-3.65,1.69c-1.61,0.53-3.32,1.09-5.11,1.66c-1.85,0.6-3.64,1.36-5.32,2.25
		c-1.78,0.95-3.27,2.22-4.41,3.78c-1.2,1.63-1.8,3.72-1.8,6.21c0,2.08,0.45,3.95,1.34,5.55c0.9,1.63,2.24,2.92,3.98,3.82
		c1.69,0.87,3.7,1.32,5.97,1.32c2.6,0,4.97-0.62,7.05-1.84c1.24-0.72,2.38-1.68,3.4-2.85c0.11,0.35,0.24,0.67,0.39,0.98
		c0.6,1.23,1.52,2.18,2.72,2.81c1.14,0.6,2.57,0.91,4.24,0.91c1.83,0,3.34-0.32,4.49-0.96c1.01-0.56,2.09-1.27,3.19-2.11l0.95-0.72
		l-2.25-3.48L646.68,403.82z M622.88,403.22c-0.87-0.98-1.3-2.28-1.3-3.99c0-1.76,0.34-3.18,1.01-4.23c0.7-1.09,1.6-1.99,2.67-2.67
		c1.17-0.74,2.42-1.4,3.72-1.95c1.37-0.58,2.67-1.18,3.86-1.78l0,0l0.02-0.01c0.27-0.14,0.53-0.3,0.76-0.49v11.67
		c-1.01,1.6-2.13,2.81-3.33,3.61c-1.23,0.82-2.52,1.22-3.94,1.22C624.85,404.61,623.72,404.15,622.88,403.22z"/>
	<path class="st0" d="M580.21,388.26c-1.57-1.27-3.34-2.52-5.24-3.72c-1.69-1.09-3.25-2.1-4.69-3.02c-1.32-0.84-2.4-1.75-3.2-2.72
		c-0.7-0.83-1.04-1.82-1.04-3c0-1.49,0.42-2.57,1.28-3.29c0.93-0.78,2.09-1.15,3.53-1.15c1.95,0,3.46,0.45,4.62,1.39
		c1.21,0.97,2.15,2.24,2.78,3.77c0.68,1.64,1.16,3.35,1.44,5.07l0.18,1.08h4.1v-1.29c0-3.21,0.02-5.79,0.07-7.67
		c0.05-1.88,0.12-3.52,0.22-4.89l0.1-1.38h-4.25l-0.13,1.15c-0.15,1.31-0.38,1.87-0.5,2.08c-0.08-0.04-0.2-0.12-0.36-0.25
		c-0.74-0.63-1.83-1.27-3.34-1.97c-1.55-0.72-3.44-1.09-5.6-1.09c-2.09,0-4.08,0.37-5.91,1.1c-1.91,0.76-3.47,1.96-4.62,3.57
		c-1.17,1.63-1.77,3.72-1.77,6.22c0,2.28,0.56,4.28,1.67,5.93c1.05,1.56,2.43,2.97,4.1,4.19c1.57,1.15,3.29,2.32,5.09,3.47
		c2.36,1.49,4.33,2.93,5.87,4.27c1.31,1.14,1.94,2.58,1.94,4.39c0,1.47-0.28,2.63-0.82,3.45c-0.56,0.84-1.22,1.42-2.01,1.77
		c-0.85,0.37-1.69,0.56-2.49,0.56c-2.16,0-3.83-0.49-4.97-1.45c-1.19-1-2.08-2.43-2.65-4.27c-0.62-2-1.1-4.38-1.44-7.07l-0.14-1.13
		h-4.14v1.29c0,3.71-0.02,6.75-0.07,9.05c-0.05,2.25-0.12,4.19-0.22,5.75l-0.09,1.37h4.18l0.17-1.09c0.13-0.81,0.28-1.28,0.4-1.53
		c0.45,0.35,0.91,0.68,1.37,0.99c0.56,0.38,1.12,0.7,1.66,0.97l0.11,0.05c0.97,0.37,1.99,0.66,3.03,0.85
		c1.04,0.19,2.15,0.28,3.31,0.28c2.44,0,4.72-0.43,6.78-1.29c2.11-0.88,3.85-2.19,5.17-3.9c1.36-1.76,2.06-3.95,2.06-6.52
		c0-2.27-0.53-4.27-1.57-5.96C583.19,391.07,581.85,389.59,580.21,388.26z"/>
	<path class="st0" d="M691.02,392.77h-22.27v-6.89h22.27V392.77z"/>
	<linearGradient id="SVGID_11_" gradientUnits="userSpaceOnUse" x1="708.7353" y1="381.8244" x2="814.8011" y2="381.8244">
		<stop  offset="0.106" style="stop-color:#CE9968"/>
		<stop  offset="0.4688" style="stop-color:#A67649"/>
		<stop  offset="0.7802" style="stop-color:#94673B"/>
	</linearGradient>
	<path class="st11" d="M730.63,405.38h-1.29c-1.58,0-2.76-0.12-3.51-0.36c-0.49-0.15-0.77-0.44-0.94-0.96
		c-0.18-0.53-0.39-1.6-0.39-3.68v-37.56c0-2.14,0.21-3.2,0.38-3.71c0.18-0.52,0.49-0.83,1.01-1.03c0.51-0.19,1.53-0.43,3.49-0.49
		l1.25-0.04v-4.11l-1.35,0.06c-1.19,0.05-2.65,0.1-4.34,0.15c-1.71,0.05-3.47,0.08-5.23,0.08c-1.95,0-3.8-0.03-5.49-0.08
		c-1.67-0.05-3.07-0.1-4.14-0.15l-1.35-0.06v4.12l1.25,0.04c1.57,0.05,2.74,0.21,3.49,0.49c0.52,0.19,0.83,0.51,1.01,1.03
		c0.18,0.51,0.38,1.57,0.38,3.71v37.56c0,2.08-0.21,3.15-0.39,3.68c-0.17,0.52-0.48,0.83-0.97,1.01c-0.77,0.26-1.97,0.45-3.56,0.54
		l-1.21,0.07v4.05l1.32-0.04c1.85-0.05,3.83-0.09,5.89-0.11c2.07-0.02,4.12-0.05,6.13-0.08c2.08-0.03,3.92-0.04,5.63-0.04h2.92
		V405.38z M809.26,388.13c-1.57-1.27-3.34-2.52-5.24-3.72c-1.69-1.09-3.25-2.1-4.69-3.02c-1.32-0.84-2.4-1.75-3.2-2.72
		c-0.7-0.83-1.04-1.82-1.04-3c0-1.49,0.42-2.57,1.28-3.29c0.93-0.78,2.09-1.15,3.53-1.15c1.95,0,3.46,0.45,4.62,1.39
		c1.21,0.97,2.15,2.24,2.78,3.77c0.68,1.64,1.16,3.35,1.44,5.07l0.18,1.08h4.1v-1.29c0-3.21,0.02-5.79,0.07-7.67
		c0.05-1.88,0.12-3.52,0.22-4.89l0.1-1.38h-4.25l-0.13,1.15c-0.15,1.31-0.38,1.87-0.5,2.08c-0.08-0.04-0.2-0.12-0.36-0.25
		c-0.74-0.63-1.83-1.27-3.34-1.97c-1.55-0.72-3.44-1.09-5.6-1.09c-2.09,0-4.08,0.37-5.91,1.09c-1.91,0.76-3.47,1.96-4.62,3.57
		c-1.17,1.63-1.77,3.72-1.77,6.22c0,2.28,0.56,4.28,1.67,5.93c1.05,1.56,2.43,2.97,4.1,4.19c1.57,1.15,3.29,2.32,5.09,3.47
		c2.36,1.49,4.33,2.93,5.87,4.27c1.31,1.14,1.94,2.58,1.94,4.39c0,1.47-0.28,2.63-0.82,3.45c-0.56,0.84-1.22,1.42-2.01,1.77
		c-0.85,0.37-1.69,0.56-2.49,0.56c-2.16,0-3.83-0.49-4.97-1.45c-1.19-1-2.08-2.43-2.65-4.27c-0.62-2-1.1-4.38-1.44-7.07l-0.14-1.13
		h-4.14v1.29c0,3.71-0.02,6.75-0.07,9.05c-0.05,2.25-0.12,4.19-0.22,5.75l-0.09,1.37h4.18l0.17-1.09c0.13-0.81,0.28-1.28,0.4-1.53
		c0.45,0.35,0.91,0.68,1.37,0.99c0.56,0.38,1.12,0.7,1.66,0.97l0.11,0.05c0.97,0.37,1.99,0.66,3.03,0.85
		c1.04,0.19,2.15,0.28,3.31,0.28c2.44,0,4.72-0.43,6.78-1.29c2.11-0.88,3.85-2.19,5.17-3.9c1.36-1.76,2.06-3.95,2.06-6.52
		c0-2.27-0.53-4.27-1.57-5.96C812.24,390.95,810.91,389.46,809.26,388.13z M781.51,409.67l0-4.31c-5.35-0.55-5.9,0.89-5.9-5.38
		v-17.53c0-8.95-4.61-14.39-11.99-14.39c-2.68,0-5.07,1.11-7.66,2.77c-2.4,1.57-4.43,2.95-6.27,4.24c0-2.21,0.15-6.15,0.15-8.28
		c-4.17,0.97-8.02,1.75-13.03,1.13l-0.02,4.25c5.25,0.49,5.62,2.8,5.62,8.8v19.01c0,6.09-0.55,4.73-6.64,5.38v4.31
		c6.76-0.52,13.41-0.51,19.93,0l0.08-4.31c-5.44-0.55-6.07,0.99-6.07-5.38v-21.59c2.86-2.58,6.46-4.8,10.24-4.8
		c6.09,0,8.4,4.34,8.4,10.8v15.22c0,6.27-0.59,5.2-5.94,5.75l0.04,4.31C769.15,409.13,775.55,409.06,781.51,409.67z"/>
</g>
</svg>
