<svg xmlns="http://www.w3.org/2000/svg" xml:space="preserve" id="Layer_1" x="0" y="0" viewBox="0 0 1280 720"><style>.st0{fill:#246564}</style><path d="M463.05 428.78c.03-.15.25-.27.65-.37s.66-.24.77-.42c.54-.85 1.06-1.5 1.55-1.95.5-.45 1.2-.91 2.09-1.38q2.13-1.125 4.68-1.08c1.22.02 2.33.2 3.31.54s1.87.94 2.67 1.79c.64.67 1.06 1.48 1.27 2.45.21.96.2 1.89-.05 2.77-.42 1.67-1.33 2.98-2.71 3.93-1.38.96-2.98 1.43-4.81 1.43-2.25 0-4.05-.48-5.39-1.45-.77-.56-1.46-1.21-2.08-1.96-.51 1.67-1.11 3.23-1.81 4.68q-.24.54-.75.93c-.33.26-.67.33-1.02.22-.33-.11-.54-.36-.64-.73-.1-.38-.08-.74.05-1.08.9-2.81 1.53-5.08 1.91-6.81q.045-.27.15-.81c.08-.35.13-.59.16-.7m3.68.95c-.24.42-.29.82-.12 1.17.41.92 1.13 1.67 2.18 2.25 1.26.7 2.59 1 3.99.88 1.01-.08 1.9-.38 2.67-.91.77-.52 1.35-1.22 1.74-2.08.34-.75.35-1.52.01-2.31-.33-.79-.83-1.34-1.48-1.65-.8-.39-1.66-.62-2.57-.69s-1.79.04-2.62.32c-1.74.6-3 1.6-3.8 3.02M484.97 424.64c.2-.39.52-.66.98-.81s.87-.12 1.22.07c.33.18.53.46.61.84.08.39.04.75-.12 1.09q-.495 1.155-1.59 3.06c-.18.31-.49.52-.92.64q-.645.165-.99-.03-.54-.27-.72-.87c-.12-.4-.09-.77.11-1.11.03-.04.51-1 1.42-2.88M490.38 426.55c.34-.46.78-.89 1.3-1.31s.98-.7 1.37-.85q.855-.345 1.98-.03c.34-.21.8-.41 1.38-.59s1.13-.25 1.65-.22c1.09.08 1.96.33 2.58.73.63.41 1.16 1 1.6 1.76.72 1.26.87 2.68.44 4.28-.23.83-.62 1.66-1.16 2.47-.55.82-1.18 1.49-1.9 2.01q-2.445 1.785-5.61 1.74-3.03-.045-4.56-1.74c-.95-1.06-1.17-2.67-.66-4.82.13-.56.35-1.17.66-1.86.34-.67.64-1.2.93-1.57m.86 4.46c-.1.78-.03 1.35.22 1.7.24.35.63.65 1.15.89.64.31 1.41.39 2.33.25.91-.15 1.83-.49 2.74-1.03a5.9 5.9 0 0 0 1.62-1.46c.46-.6.76-1.21.91-1.85q.27-1.245-.27-2.16c-.36-.6-.91-.96-1.64-1.08-.7-.13-1.42-.02-2.14.34-.73.36-1.27.72-1.63 1.08-.21.2-.51.32-.91.36-.39.04-.73-.04-1-.23-.71.52-1.17 1.59-1.38 3.19"/><path d="M492.83 444.69c-.34-.29-.66-.67-.96-1.13-.29-.46-.48-.89-.56-1.3-.07-.34-.02-.63.15-.86.16-.23.36-.34.57-.34.22 0 .41.08.58.25.03.05.11.16.24.34s.22.3.27.37c.05.06.14.17.27.32s.25.26.37.34c.11.08.25.18.42.29.16.11.34.21.54.29s.41.16.64.24c1.34.36 2.52.36 3.55 0s1.9-1.02 2.62-1.98c.67-.88 1.41-2.3 2.23-4.26.67-1.58 1.44-3.6 2.3-6.05.06-.15.18-.45.33-.91s.27-.78.34-.98.18-.49.33-.88.27-.71.38-.96c.11-.24.23-.53.38-.86s.3-.62.45-.89.31-.53.48-.8c.34-.52.71-.89 1.1-1.11s.77-.24 1.13-.06c.82.41.92 1.22.32 2.42-.6 1.19-1.25 2.69-1.94 4.51l-2.35 6.24c-.77 2.01-1.73 3.79-2.89 5.36-1.14 1.55-2.59 2.62-4.33 3.21-.73.25-1.48.4-2.24.48-.76.07-1.57.01-2.44-.2-.86-.18-1.62-.55-2.28-1.09"/><path d="M500.55 444.69c-.34-.29-.66-.67-.96-1.13-.29-.46-.48-.89-.56-1.3-.07-.34-.02-.63.15-.86.16-.23.36-.34.57-.34.22 0 .41.08.58.25.03.05.11.16.24.34s.22.3.27.37c.05.06.14.17.27.32s.25.26.37.34c.11.08.25.18.42.29.16.11.34.21.54.29s.41.16.64.24c1.34.36 2.52.36 3.55 0s1.9-1.02 2.62-1.98c.67-.88 1.41-2.3 2.23-4.26.67-1.58 1.44-3.6 2.3-6.05.06-.15.18-.45.33-.91s.27-.78.34-.98.18-.49.33-.88.27-.71.38-.96c.11-.24.23-.53.38-.86s.3-.62.45-.89.31-.53.48-.8c.34-.52.71-.89 1.1-1.11s.77-.24 1.13-.06c.82.41.92 1.22.32 2.42-.6 1.19-1.25 2.69-1.94 4.51l-2.35 6.24c-.77 2.01-1.73 3.79-2.89 5.36-1.14 1.55-2.59 2.62-4.33 3.21-.73.25-1.48.4-2.24.48-.76.07-1.57.01-2.44-.2a5.15 5.15 0 0 1-2.28-1.09M522.81 424.64c.2-.39.52-.66.98-.81s.87-.12 1.22.07c.33.18.53.46.61.84.08.39.04.75-.12 1.09q-.495 1.155-1.59 3.06c-.18.31-.49.52-.92.64q-.645.165-.99-.03-.54-.27-.72-.87c-.12-.4-.09-.77.11-1.11.03-.04.5-1 1.42-2.88M528.02 426.91c-.38-.46-.32-.95.16-1.48s1.08-.92 1.8-1.16c1.49-.51 2.91-.76 4.29-.76 2.17 0 3.79.59 4.85 1.76.65.73 1.07 1.62 1.26 2.66s.09 2.07-.28 3.1c-.62 1.67-1.66 2.96-3.11 3.9-1.73 1.09-3.58 1.64-5.56 1.64-1.97 0-3.38-.49-4.21-1.47-.72-.85-.9-1.84-.54-2.99.44-1.37 1.33-2.28 2.67-2.72.49-.16 1.02-.27 1.58-.33s1.03-.04 1.41.04c.59.13 1.06.36 1.42.7.36.33.47.67.32.99-.15.31-.33.54-.55.69s-.46.22-.72.22-.54 0-.84-.01-.61 0-.92.01c-.44.05-.82.15-1.14.32-.32.16-.53.38-.63.64-.15.44-.03.8.36 1.06s.85.41 1.4.43 1.06-.02 1.53-.1c1.71-.41 3.09-1.25 4.11-2.52.49-.6.78-1.29.88-2.06s0-1.38-.29-1.84c-.23-.38-.49-.64-.8-.81q-.45-.24-1.41-.42c-1.18-.2-2.33-.07-3.48.39-.6.25-1.12.42-1.54.51-.42.1-.82.12-1.18.07-.36-.04-.64-.19-.84-.46M548.55 421.18c.38.11.65.34.83.69.18.34.2.69.07 1.05-.7 1.99-1.62 4.3-2.77 6.93-1 2.29-1.79 3.97-2.38 5.05-.59 1.09-1.34 1.59-2.25 1.49-.41-.05-.68-.26-.82-.64q-.21-.57.06-1.05c1.37-2.94 2.36-5.11 2.96-6.51.82-1.89 1.62-3.9 2.42-6 .15-.39.4-.69.75-.88.36-.2.73-.24 1.13-.13M565.64 435.17c.03-.29.22-1.01.56-2.15.31-1.01.78-2.36 1.4-4.03s1-2.79 1.15-3.34c.06-.23.17-.42.32-.59.15-.16.32-.23.51-.2.1.02.18.04.26.06.07.03.16.07.26.12.1.06.18.1.24.14.03.02.07.03.1.04s.07.01.11 0 .08-.01.11-.01.07-.01.12-.04.08-.05.1-.06c.02-.02.05-.04.11-.07s.09-.05.1-.06.08-.06.21-.16c.65-.49 1.43-.85 2.33-1.08 1.06-.26 2.09-.25 3.1.03 1 .28 1.83.74 2.49 1.37.9.87 1.38 1.98 1.44 3.35s-.26 2.73-.98 4.07c-.46.92-1.09 1.82-1.91 2.72-.42.47-.88.84-1.37 1.11s-.86.29-1.1.06a.75.75 0 0 1-.23-.45c-.03-.17.02-.36.12-.57.11-.21.21-.39.31-.54s.24-.34.42-.59c.05-.07.09-.11.12-.15.8-1.06 1.35-2.09 1.64-3.09.39-1.32.4-2.4.02-3.23q-.27-.615-.99-.99c-.72-.375-1-.37-1.55-.35-1.09.02-1.99.4-2.69 1.15-.15.15-.31.39-.48.71-.17.33-.36.57-.55.74-.08.08-.24.15-.49.21-.24.06-.39.14-.44.26l-2.79 6.05c-.13.26-.32.49-.58.67-.25.19-.49.28-.7.28-.29 0-.51-.14-.64-.43-.15-.3-.19-.62-.16-.96M588.76 421.18c.38.11.65.34.83.69.18.34.2.69.07 1.05-.7 1.99-1.62 4.3-2.77 6.93-1 2.29-1.79 3.97-2.38 5.05-.59 1.09-1.34 1.59-2.25 1.49-.41-.05-.68-.26-.82-.64q-.21-.57.06-1.05c1.37-2.94 2.36-5.11 2.96-6.51.82-1.89 1.62-3.9 2.42-6 .15-.39.4-.69.75-.88.36-.2.74-.24 1.13-.13M601.86 418.83c1.16-.2 1.84.03 2.03.69.1.31-.02.6-.37.88-.34.28-.75.47-1.22.59q-1.815.465-3.6 1.47c-.74.43-1.39.87-1.96 1.35-.57.47-1.14 1.08-1.69 1.81-1.17 1.57-1.85 3.18-2.01 4.85-.07.57.02 1.14.24 1.69.23.56.62.96 1.18 1.22q.765.39 2.13.12a6.4 6.4 0 0 0 2.57-1.15c.57-.42 1.18-.96 1.81-1.62.64-.65 1.04-1.13 1.2-1.42.21-.39.5-.69.86-.88.36-.2.71-.2 1.05-.03.29.15.5.36.61.63s.15.54.11.82-.13.54-.28.78c-.85 1.4-1.85 2.58-2.99 3.53-.92.77-1.92 1.36-3.02 1.78s-2.2.62-3.29.6a5.56 5.56 0 0 1-2.68-.72c-.81-.47-1.43-1.15-1.87-2.05-.69-1.39-.73-3.17-.15-5.34.52-1.96 1.47-3.62 2.84-5q2.325-2.325 4.95-3.48c1.29-.56 2.47-.94 3.55-1.12M609.3 424.64c.2-.39.52-.66.98-.81s.86-.12 1.22.07c.33.18.53.46.61.84.08.39.04.75-.12 1.09q-.495 1.155-1.59 3.06c-.18.31-.49.52-.92.64q-.645.165-.99-.03-.54-.27-.72-.87c-.12-.4-.09-.77.11-1.11.04-.04.51-1 1.42-2.88M614.52 425.25c.7-.56 1.69-.97 2.98-1.24 1.28-.27 2.61-.38 3.98-.33 3.12.13 5.45 1.24 7 3.33.57.78.91 1.76 1.03 2.93.11 1.17-.06 2.36-.51 3.56-.36.85-.87 1.56-1.52 2.14s-1.31.88-1.98.89q-2.175.03-3.99-2.28c-.38-.47-.78-.81-1.2-1q-.225-.15-.45-.09c-.15.04-.35.18-.57.4-.2.23-.46.59-.8 1.09-.33.5-.63.88-.89 1.16-.28.28-.61.43-1 .45-.39.03-.73-.1-1-.38-.28-.34-.4-.7-.37-1.08s.18-.76.44-1.15c.6-.88 1.24-1.73 1.91-2.55.52-.64 1.18-.96 1.98-.97s1.54.32 2.23.97c.28.26.57.56.87.89s.58.63.84.87c.26.25.6.51 1 .81.36.28.7.36 1.02.26.32-.11.59-.3.81-.58s.4-.64.55-1.08q.3-.78.18-1.8c-.07-.68-.29-1.24-.65-1.7a6.1 6.1 0 0 0-1.98-1.69c-.8-.44-1.63-.69-2.5-.76-2.04-.15-4.06.29-6.07 1.3-.36.18-.73.22-1.13.11-.39-.11-.69-.32-.88-.65-.15-.28-.15-.6-.01-.96.12-.32.35-.63.68-.87M633.18 425.25c.7-.56 1.69-.97 2.98-1.24 1.28-.27 2.61-.38 3.98-.33 3.12.13 5.45 1.24 7 3.33.57.78.91 1.76 1.03 2.93.11 1.17-.06 2.36-.51 3.56-.36.85-.87 1.56-1.52 2.14s-1.31.88-1.98.89q-2.175.03-3.99-2.28c-.38-.47-.78-.81-1.2-1q-.225-.15-.45-.09c-.15.04-.35.18-.57.4-.2.23-.46.59-.8 1.09-.33.5-.63.88-.89 1.16-.28.28-.61.43-1 .45-.39.03-.73-.1-1-.38-.28-.34-.4-.7-.37-1.08s.18-.76.44-1.15c.6-.88 1.24-1.73 1.91-2.55.52-.64 1.18-.96 1.98-.97s1.54.32 2.23.97c.28.26.57.56.87.89s.58.63.84.87c.26.25.6.51 1 .81.36.28.7.36 1.02.26.32-.11.59-.3.81-.58s.4-.64.55-1.08q.3-.78.18-1.8c-.07-.68-.29-1.24-.65-1.7a6.1 6.1 0 0 0-1.98-1.69c-.8-.44-1.63-.69-2.5-.76-2.04-.15-4.06.29-6.07 1.3-.36.18-.73.22-1.13.11-.39-.11-.69-.32-.88-.65-.15-.28-.15-.6-.01-.96.12-.32.35-.63.68-.87M669.16 425.2c1.53-1.14 3.43-1.67 5.68-1.59 1.04.03 2.03.23 2.95.6s1.68.89 2.27 1.58c1.14 1.32 1.68 2.86 1.62 4.6-.08 2.14-1.07 3.74-2.96 4.8q-1.62.9-4.68.54c-.77-.08-1.49-.23-2.15-.44-.57-.2-.93.03-1.08.66-.83 3.48-2.05 6.95-3.65 10.41.88-.51 1.63-.95 2.25-1.35q1.2-.765 1.47-.57c.18.12.03.61-.44 1.46-.44.75-1.53 1.76-3.28 3.01-1.16.83-2.24 1.23-3.23 1.2-.34-.02-.58-.23-.71-.65s-.15-.78-.05-1.09c.18-.56.54-1.42 1.09-2.6s.93-2.04 1.14-2.6c.86-2.2 1.45-3.85 1.76-4.92.51-1.8.89-3.09 1.15-3.87.23-.64.56-1.15.98-1.54s.91-.52 1.44-.39c.29.07.66.16 1.1.28s.78.21 1 .27q.345.09.96.21c.41.08.73.11.97.1.24-.02.58-.03 1.04-.05.69-.1 1.3-.35 1.85-.77s.9-.93 1.07-1.55q.225-.81-.06-1.74c-.19-.62-.54-1.16-1.04-1.62-.98-.88-2.28-1.22-3.89-1.03-1.11.13-2.13.51-3.06 1.13-.31.21-.68.28-1.11.22-.43-.07-.76-.27-.97-.61-.2-.24-.25-.58-.16-1 .07-.44.32-.8.73-1.09M685.78 430.56a20.924 20.924 0 0 0 .98-1.86l.2-.42 2.79-6.76c1.09-2.58 2.02-4.42 2.79-5.51q2.22-3.21 5.19-4.26c1.09-.39 2.16-.54 3.2-.45 1.03.09 1.95.44 2.75 1.04.33.24.59.57.79.97s.21.68.05.84a.93.93 0 0 1-.64.29c-.24.02-.46-.01-.63-.09a4.7 4.7 0 0 1-.69-.36c-.55-.33-1.12-.51-1.7-.54s-1.25.07-2 .32q-1.47.465-2.64 1.86a11.564 11.564 0 0 0-1.32 1.94c-.23.41-.43.78-.61 1.11s-.4.77-.65 1.31-.45.96-.59 1.26q-.21.45-.6 1.38c-.26.62-.44 1.04-.53 1.26l-.54 1.32q-.405.99-.48 1.14c-.42 1.03-.95 2.24-1.58 3.62-.63 1.39-1.11 2.36-1.43 2.91q-.39.69-.69 1.14c-.2.3-.47.66-.83 1.07s-.75.76-1.18 1.05c-.44.31-.94.5-1.49.56-.56.07-.98 0-1.27-.2-.47-.29-.64-.98-.49-2.06.11-.83.52-1.6 1.22-2.3.88-.84 1.76-1.38 2.62-1.58M706.99 431.84c.26.21.39.51.39.89s-.09.68-.27.89c-.41.56-1.02 1.07-1.83 1.54-.92.52-2.15.9-3.7 1.14q-2.325.36-4.14.06c-1.46-.24-2.6-.9-3.45-1.96-.38-.47-.67-1.08-.87-1.82a7 7 0 0 1-.26-2.22c.07-1.31.56-2.61 1.5-3.92.75-1.05 1.89-1.88 3.43-2.52 1.23-.51 2.64-.62 4.24-.34 1.13.2 1.89.69 2.3 1.49.52 1.04.47 2.2-.15 3.45-.46.95-1.2 1.8-2.23 2.57s-2.62 1.54-4.78 2.33c.33.24.88.39 1.66.43.79.04 1.42 0 1.91-.11q2.475-.42 4.26-1.62c.87-.56 1.53-.66 1.99-.28m-11.24-.34c2.09-.74 3.59-1.49 4.51-2.25.59-.49 1.01-.97 1.28-1.45.26-.47.36-.85.31-1.14-.06-.29-.22-.46-.5-.53-.48-.16-1.09-.18-1.84-.05s-1.39.43-1.94.88c-1.64 1.34-2.25 2.85-1.82 4.54M729.58 427.41c0-.28.06-.49.17-.63s.24-.24.39-.29c.15-.06.24-.1.27-.14.56-.72 1.06-1.23 1.52-1.54.95-.65 2.05-1.04 3.31-1.15s2.45.05 3.58.49c.64.25 1.22.65 1.76 1.22s.91 1.22 1.1 1.94c.31 1.14.38 2.24.22 3.28-.16 1.05-.58 2.15-1.25 3.33-.46.83-.99 1.56-1.59 2.18-.2.23-.44.41-.73.55s-.56.13-.81-.01a.88.88 0 0 1-.45-.69c-.04-.31.02-.6.18-.86.31-.54.63-1.13.96-1.76.34-.69.61-1.35.8-2s.26-1.33.22-2.06-.27-1.34-.67-1.82c-.44-.52-1.11-.85-2-.98s-1.71-.03-2.46.29c-.74.33-1.29.79-1.67 1.4-.03.03-.07.09-.12.16s-.08.13-.1.16-.04.08-.07.14-.05.11-.06.17 0 .12.01.18c.06 1.03-.04 2.07-.32 3.11q-.495 1.83-1.44 3c-.64.78-1.53 1.42-2.69 1.95q-.855.36-2.16.42c-.86.03-1.56-.03-2.08-.2-.47-.13-.83-.32-1.08-.58a.95.95 0 0 1-.27-.87c.07-.26.26-.46.59-.59s.73-.16 1.2-.1c1.35.2 2.5-.04 3.43-.71 1.17-.83 1.92-1.98 2.23-3.43.08-.39.13-.78.15-1.16s.01-.8-.01-1.26c-.05-.45-.06-.83-.06-1.14M745.21 426.91c-.38-.46-.32-.95.16-1.48s1.08-.92 1.8-1.16c1.49-.51 2.91-.76 4.29-.76 2.17 0 3.79.59 4.85 1.76.65.73 1.07 1.62 1.26 2.66s.09 2.07-.28 3.1c-.62 1.67-1.66 2.96-3.11 3.9-1.73 1.09-3.58 1.64-5.56 1.64s-3.38-.49-4.21-1.47c-.72-.85-.9-1.84-.54-2.99.44-1.37 1.33-2.28 2.67-2.72.49-.16 1.02-.27 1.58-.33s1.03-.04 1.41.04c.59.13 1.06.36 1.42.7.36.33.46.67.32.99-.15.31-.33.54-.55.69s-.46.22-.72.22-.54 0-.84-.01-.61 0-.92.01c-.44.05-.82.15-1.14.32-.32.16-.53.38-.63.64-.15.44-.03.8.36 1.06.38.27.85.41 1.4.43s1.06-.02 1.53-.1q2.565-.615 4.11-2.52c.49-.6.78-1.29.88-2.06s0-1.38-.29-1.84c-.23-.38-.5-.64-.8-.81q-.45-.24-1.41-.42-1.77-.3-3.48.39c-.61.25-1.12.42-1.54.51-.42.1-.82.12-1.17.07-.38-.04-.66-.19-.85-.46M771.24 418.83c1.16-.2 1.84.03 2.03.69.1.31-.03.6-.37.88s-.75.47-1.22.59q-1.815.465-3.6 1.47c-.74.43-1.39.87-1.96 1.35-.57.47-1.13 1.08-1.69 1.81-1.17 1.57-1.84 3.18-2.01 4.85-.07.57.02 1.14.24 1.69s.62.96 1.17 1.22q.765.39 2.13.12c.92-.18 1.77-.56 2.57-1.15.57-.42 1.18-.96 1.81-1.62.64-.65 1.04-1.13 1.2-1.42.21-.39.5-.69.86-.88.36-.2.71-.2 1.05-.03.29.15.5.36.61.63s.15.54.11.82-.13.54-.28.78c-.85 1.4-1.85 2.58-2.99 3.53-.92.77-1.92 1.36-3.02 1.78s-2.2.62-3.29.6a5.56 5.56 0 0 1-2.68-.72c-.81-.47-1.43-1.15-1.87-2.05q-1.035-2.085-.15-5.34c.52-1.96 1.47-3.62 2.84-5q2.325-2.325 4.95-3.48c1.29-.56 2.48-.94 3.56-1.12M784.41 421.77c.38-.28.77-.44 1.19-.49s.76.06 1.04.32c.26.34.35.71.26 1.09-.09.39-.32.73-.67 1.04l-1.18 1.08q2.625 1.515 2.67 4.02c.03 1.75-.51 3.2-1.62 4.36-.88.92-1.8 1.62-2.74 2.11-1.29.65-2.61 1.06-3.97 1.22-.93.11-1.71.09-2.35-.06-.64-.16-1.13-.54-1.47-1.16-.38-.65-.23-1.68.44-3.08.46-.93 1.08-2.01 1.87-3.23s1.58-2.27 2.36-3.13c-.87-.2-1.89-.29-3.06-.29-.26 0-.55 0-.87.01s-.54.01-.66.01-.25-.01-.38-.02c-.13-.02-.25-.05-.34-.1-.52-.26-.6-.63-.22-1.1.33-.41.77-.65 1.35-.74 1.34-.21 2.56-.29 3.67-.25.75.03 1.58.16 2.5.37.21-.2.56-.52 1.05-.98.5-.47.87-.8 1.13-1m-1.32 4.95c-1.62 1.7-2.91 3.54-3.87 5.51-.2.42-.25.77-.16 1.05s.27.42.53.42c.72 0 1.59-.3 2.62-.91.56-.33 1.06-.75 1.52-1.26s.77-1.02.95-1.53c.23-.62.16-1.28-.2-1.98-.35-.7-.82-1.14-1.39-1.3M787.99 434.85c.2-.44.36-.81.5-1.11s.29-.62.45-.94c.16-.33.31-.63.44-.91.15-.33.36-.8.65-1.42s.5-1.08.64-1.37.33-.64.56-1.05.48-.78.72-1.1c.28-.38.63-.63 1.07-.77.43-.14.88-.11 1.34.07.46.19.83.54 1.13 1.07.16.28.39.69.67 1.22.28.54.52.97.7 1.28.18.32.41.72.7 1.21s.57.97.87 1.45c.13.21.27.34.43.38.15.04.3.01.43-.1s.25-.22.36-.36c.11-.13.2-.28.28-.44.28-.55 1.12-2.33 2.54-5.34 1.41-3.01 2.18-4.64 2.31-4.92.29-.6.66-1.02 1.09-1.24s.84-.24 1.21-.06c.36.16.59.43.7.81s.03.87-.23 1.49c-2.11 4.36-3.85 8.16-5.22 11.41-.65 1.57-1.68 2.35-3.08 2.35-.59 0-1.15-.17-1.69-.51s-.99-.82-1.35-1.42c-.74-1.22-1.45-2.54-2.13-3.94a.61.61 0 0 0-.51-.37c-.23-.02-.39.07-.49.27-.28.47-.74 1.33-1.37 2.57q-.96 1.86-1.47 2.67c-.2.31-.45.53-.75.67s-.61.14-.92.01c-.28-.13-.47-.37-.57-.71-.13-.34-.13-.62-.01-.85M808.73 425.94c2.47-1.44 4.9-2.15 7.3-2.13 2.32.03 4.12.67 5.41 1.91 1.58 1.52 2.31 3.32 2.18 5.41-.07.96-.26 1.84-.59 2.62s-.68 1.4-1.05 1.86c-.28.34-.62.61-1.02.8s-.72.22-.97.11c-.31-.13-.5-.35-.55-.66-.06-.31.02-.62.23-.93.7-.96 1.11-1.89 1.22-2.77q.225-1.515-.42-2.85c-.43-.89-1.11-1.59-2.06-2.09-.54-.28-1.16-.44-1.87-.49s-1.29-.03-1.75.05-1.05.21-1.79.39c-.51.13-1.49.54-2.96 1.22-.43.2-.82.25-1.19.17s-.63-.28-.77-.59c-.18-.36-.21-.74-.09-1.13.14-.39.38-.69.74-.9m2.35 5.29c.33-.41.82-.59 1.49-.54.64.05 1.19.33 1.67.86.62.69.73 1.56.32 2.62-.23.59-.66 1.14-1.3 1.67q-.66.54-1.26.54c-.6 0-.66-.13-.77-.4s-.11-.57.03-.92c.08-.16.19-.34.32-.53s.23-.33.29-.44.11-.22.15-.35c.03-.13 0-.26-.1-.38s-.26-.25-.49-.38c-.25-.15-.41-.4-.49-.76-.09-.37-.04-.7.14-.99"/><path d="M657.64 328.58c-.09-.01-6.93.02-16.04-6.88-8.83-6.69-18.22-21.65-20.95-33.37l-.73-63.97h-16.71v2.36h.75c.19 0 4.75.04 4.99 3.84v56.2l.11.18c.04.07 4.05 6.66 7.44 13.16q.375.72.87 1.74c4.05 8.17 14.26 28.76 34.62 28.76 1.84 0 3.77-.17 5.78-.53z" class="st0"/><linearGradient id="SVGID_1_" x1="566.157" x2="652.058" y1="279.074" y2="354.582" gradientUnits="userSpaceOnUse"><stop offset=".165" style="stop-color:#ce9968"/><stop offset=".522" style="stop-color:#a67649"/><stop offset=".735" style="stop-color:#94673b"/></linearGradient><path d="M552.56 279.89c1.23-.66 2.7-.78 4.11-.79 1.42 0 2.83.21 4.22.49 2.75.62 5.41 1.6 7.91 2.8 5.01 2.4 9.56 5.53 13.74 8.97 4.21 3.42 8.02 7.24 11.61 11.17l5.17 5.93c1.67 1.98 3.32 3.95 4.98 5.86 1.64 1.92 3.28 3.8 4.97 5.6 1.66 1.82 3.36 3.55 5.13 5.16 3.49 3.28 7.24 6.08 11.39 8.23 4.15 2.17 8.74 3.62 13.64 4.44 4.91.82 10.08.94 15.41.92-2.41 1.14-4.9 2.13-7.5 2.86-2.59.78-5.28 1.29-8.03 1.59-5.49.58-11.3.13-16.8-1.64-2.76-.84-5.42-2.01-7.95-3.36-2.52-1.37-4.89-2.97-7.15-4.65a80 80 0 0 1-6.33-5.43q-2.955-2.865-5.67-5.82c-1.79-1.99-3.52-3.98-5.23-5.95l-4.99-5.91c-3.25-3.91-6.52-7.73-9.82-11.51-3.31-3.78-6.7-7.44-10.31-10.87-.9-.86-1.83-1.67-2.77-2.5-.95-.78-1.91-1.59-2.93-2.31-1.01-.73-2.06-1.41-3.17-2-1.13-.56-2.29-1.12-3.63-1.28" style="fill:url(#SVGID_1_)"/><linearGradient id="SVGID_2_" x1="562.425" x2="630.675" y1="244.656" y2="320.556" gradientUnits="userSpaceOnUse"><stop offset="0" style="stop-color:#89684e"/><stop offset=".168" style="stop-color:#8e6c50"/><stop offset=".304" style="stop-color:#926f51"/><stop offset=".913" style="stop-color:#c1945f"/></linearGradient><path d="M564.05 253.08c2.65-1.04 5.62-1.31 8.55-1.1 2.94.22 5.88.99 8.64 2.18 1.38.61 2.72 1.32 4 2.11.65.39 1.25.84 1.88 1.27q.915.675 1.8 1.38c.56.5 1.14.99 1.69 1.5.54.52 1.09 1.04 1.61 1.58l1.51 1.67 1.42 1.74c.91 1.18 1.76 2.4 2.56 3.65a46 46 0 0 1 2.24 3.82c1.42 2.63 2.51 5.16 3.62 7.73 2.22 5.09 4.27 10.1 6.54 14.95 4.5 9.68 9.8 18.83 17.33 26 3.75 3.58 8.05 6.61 12.8 9.01s9.95 4.11 15.37 5.4c-5.55.38-11.26-.15-16.78-1.74-5.53-1.57-10.84-4.21-15.53-7.71-4.72-3.48-8.79-7.78-12.27-12.41-3.48-4.64-6.37-9.63-8.9-14.7-2.52-5.07-4.7-10.24-6.8-15.29-1.06-2.5-2.12-5.04-3.18-7.33-.25-.6-.57-1.15-.84-1.73s-.56-1.16-.87-1.71c-.58-1.14-1.25-2.21-1.89-3.31-2.66-4.3-5.89-8.2-9.95-11.22-4.04-3.01-8.95-5.22-14.55-5.74" style="fill:url(#SVGID_2_)"/><path d="M679.13 248.6c-.78-4.81-2.62-9.41-5.31-13.28-2.77-4.01-6.42-7.24-10.56-9.34a25 25 0 0 0-4.96-1.89c-.56-.15-1.1-.27-1.66-.38-2.17-.44-4.41-.67-6.66-.69-4.21-.01-8.51.67-12.81 2.09-2 .66-3.98 1.46-5.9 2.39-2.12 1.04-3.91 2.08-5.47 3.17 0 0 12.87-4.87 23.8-2.61 1.87.39 3.73.75 5.47 1.38.44.16.88.33 1.3.5.41.17.81.36 1.2.55.76.38 1.52.84 2.25 1.35 2.81 1.96 5.14 4.69 6.74 7.88 1.53 3.02 2.37 6.45 2.44 9.91.07 3.32-.54 6.67-1.83 9.96-1.19 3.06-2.96 6.06-5.27 8.92q-1.815 2.25-4.08 4.41c-.85 1.02-2.44 2.38-4.11 3.7l8.38 10.07.58-.61c.5-.53 1.17-1.15 1.94-1.88 4.05-3.79 10.84-10.14 13.94-21.17 1.13-4.84 1.34-9.82.58-14.43" class="st0"/><linearGradient id="SVGID_3_" x1="641.062" x2="725.773" y1="307.703" y2="307.703" gradientUnits="userSpaceOnUse"><stop offset=".232" style="stop-color:#bf8155"/><stop offset=".83" style="stop-color:#9d7244"/></linearGradient><path d="M725.66 318.91c-.1-.82-.24-1.63-.44-2.44-.39-1.61-1.02-3.17-1.87-4.58-1.69-2.86-4.37-4.99-7.29-6.11-2.92-1.15-6.03-1.39-9-1.15v.13c2.96.22 5.88.96 8.32 2.42 2.45 1.43 4.34 3.58 5.31 6.06.49 1.24.78 2.54.89 3.86s.05 2.69-.2 3.88c-.54 2.5-1.77 4.95-3.35 6.98-1.58 2.04-3.55 3.67-5.69 4.68s-4.44 1.38-6.75 1.23c-2.32-.18-4.66-.83-6.93-1.89-.57-.28-1.14-.52-1.7-.85l-.84-.46c-.28-.15-.49-.3-.74-.44-.97-.61-1.95-1.35-2.92-2.18-3.88-3.32-7.44-7.7-10.72-12.25-3.29-4.59-6.33-9.45-9.22-14.44s-5.62-10.11-8.22-15.29c-1.3-2.59-2.57-5.2-3.8-7.82l-1.82-3.93c-.24-.53-.48-1.06-.72-1.6-3.59 3.5-9.75 8.79-16.91 11.89l2.11 3.31c1.66 2.57 3.36 5.12 5.08 7.65 3.45 5.05 7.04 10.03 10.8 14.89 3.77 4.87 7.73 9.63 12.04 14.2 2.16 2.28 4.41 4.51 6.82 6.65 2.4 2.14 4.98 4.19 7.86 6.04 1.44.92 2.97 1.78 4.65 2.53.42.18.86.38 1.26.53l1.21.42c.79.3 1.64.52 2.46.76 3.32.92 6.94 1.35 10.57 1 3.63-.36 7.24-1.63 10.19-3.71 2.96-2.07 5.25-4.8 6.86-7.78 1.6-2.99 2.61-6.21 2.79-9.62.04-.85.02-1.78-.09-2.57" style="fill:url(#SVGID_3_)"/><linearGradient id="SVGID_4_" x1="465.842" x2="812.313" y1="486.648" y2="486.648" gradientUnits="userSpaceOnUse"><stop offset=".232" style="stop-color:#bf8155"/><stop offset=".83" style="stop-color:#9d7244"/></linearGradient><path d="M812.31 450.89h-48.75l-.07.32c-28.98 39.67-75 63.19-124.32 63.19-49.45 0-95.59-23.64-124.56-63.51h-48.76l52.47 17.35-.01-.03c30.52 34.26 74.3 54.2 120.86 54.2 46.58 0 90.37-19.95 120.9-54.24z" style="fill:url(#SVGID_4_)"/><linearGradient id="SVGID_5_" x1="623.705" x2="656.223" y1="471.045" y2="471.045" gradientUnits="userSpaceOnUse"><stop offset="0" style="stop-color:#89684e"/><stop offset=".168" style="stop-color:#8e6c50"/><stop offset=".304" style="stop-color:#926f51"/><stop offset=".913" style="stop-color:#c1945f"/></linearGradient><path d="m639.96 455.58 3.84 11.81h12.42l-10.05 7.31 3.84 11.81-10.05-7.3-10.04 7.3 3.83-11.81-10.04-7.31h12.42z" style="fill:url(#SVGID_5_)"/><linearGradient id="SVGID_6_" x1="597.563" x2="620.615" y1="471.045" y2="471.045" gradientUnits="userSpaceOnUse"><stop offset="0" style="stop-color:#89684e"/><stop offset=".168" style="stop-color:#8e6c50"/><stop offset=".304" style="stop-color:#926f51"/><stop offset=".913" style="stop-color:#c1945f"/></linearGradient><path d="m609.09 460.08 2.72 8.38h8.81l-7.13 5.17 2.72 8.38-7.12-5.18-7.12 5.18 2.72-8.38-7.13-5.17h8.81z" style="fill:url(#SVGID_6_)"/><linearGradient id="SVGID_7_" x1="580.446" x2="597.107" y1="471.045" y2="471.045" gradientUnits="userSpaceOnUse"><stop offset="0" style="stop-color:#89684e"/><stop offset=".168" style="stop-color:#8e6c50"/><stop offset=".304" style="stop-color:#926f51"/><stop offset=".913" style="stop-color:#c1945f"/></linearGradient><path d="m588.78 463.12 1.96 6.05h6.37l-5.15 3.75 1.97 6.05-5.15-3.74-5.15 3.74 1.96-6.05-5.14-3.75h6.36z" style="fill:url(#SVGID_7_)"/><linearGradient id="SVGID_8_" x1="-1720.121" x2="-1697.069" y1="471.045" y2="471.045" gradientTransform="matrix(-1 0 0 1 -1037.602 0)" gradientUnits="userSpaceOnUse"><stop offset="0" style="stop-color:#89684e"/><stop offset=".168" style="stop-color:#8e6c50"/><stop offset=".304" style="stop-color:#926f51"/><stop offset=".913" style="stop-color:#c1945f"/></linearGradient><path d="m670.99 460.08-2.72 8.38h-8.8l7.12 5.17-2.72 8.38 7.12-5.18 7.13 5.18-2.72-8.38 7.12-5.17h-8.81z" style="fill:url(#SVGID_8_)"/><linearGradient id="SVGID_9_" x1="-1737.238" x2="-1720.577" y1="471.045" y2="471.045" gradientTransform="matrix(-1 0 0 1 -1037.602 0)" gradientUnits="userSpaceOnUse"><stop offset="0" style="stop-color:#89684e"/><stop offset=".168" style="stop-color:#8e6c50"/><stop offset=".304" style="stop-color:#926f51"/><stop offset=".913" style="stop-color:#c1945f"/></linearGradient><path d="m691.31 463.12-1.97 6.05h-6.36l5.14 3.75-1.96 6.05 5.15-3.74 5.14 3.74-1.96-6.05 5.15-3.75h-6.37z" style="fill:url(#SVGID_9_)"/><linearGradient id="SVGID_10_" x1="450.773" x2="829.227" y1="271.39" y2="271.39" gradientUnits="userSpaceOnUse"><stop offset=".232" style="stop-color:#bf8155"/><stop offset=".83" style="stop-color:#9d7244"/></linearGradient><path d="M798.29 329.63c-6.09-32.76-22.14-62.84-46.5-86.44-30.35-29.4-70.35-45.6-112.62-45.6s-82.27 16.19-112.62 45.6c-24.61 23.84-40.74 54.29-46.68 87.44l-8.43 4.11-20.66 10.44h35.59c.53-15.75 4.92-31.51 11.03-46a153.1 153.1 0 0 1 22.53-37.38 153.4 153.4 0 0 1 31.89-29.31 153 153 0 0 1 39.3-19.35c14.45-4.69 29.57-7.2 44.76-7.51 1.1-.02 2.19-.03 3.29-.03 15.17 0 30.33 2.18 44.86 6.55a153.1 153.1 0 0 1 39.78 18.54c12.12 7.95 23.1 17.62 32.52 28.64a153.2 153.2 0 0 1 23.3 36.86c6.9 15.42 11.76 32.05 12.34 48.99l1.67-.06v.06h35.59z" style="fill:url(#SVGID_10_)"/><path d="M601.32 362.78c1.55 0 2.91-.57 4.04-1.7s1.7-2.49 1.7-4.04-.57-2.91-1.7-4.04-2.49-1.7-4.04-1.7-2.91.57-4.04 1.7-1.7 2.49-1.7 4.04c0 1.56.57 2.92 1.7 4.04 1.12 1.13 2.48 1.7 4.04 1.7M506.67 402.78c-.07-1.77-.11-3.14-.11-4.07 0-2.52.07-4.57.22-6.09l.14-1.41h-4.33l-.11 1.17c-.25 2.55-.59 4.73-1.03 6.48-.41 1.62-1 2.92-1.76 3.85-.73.9-1.71 1.55-2.97 1.98-1.35.46-3.16.69-5.38.69h-5.53c-1.58 0-2.76-.12-3.51-.36-.49-.15-.77-.44-.94-.96-.18-.53-.39-1.6-.39-3.68v-37.56c0-2.14.21-3.2.38-3.71.18-.52.49-.83 1.01-1.03.51-.19 1.53-.43 3.49-.49l1.25-.04v-4.11l-1.35.06c-1.19.05-2.65.1-4.34.15a180 180 0 0 1-10.72 0c-1.67-.05-3.07-.1-4.14-.15l-1.35-.06v4.12l1.25.04c1.57.05 2.74.21 3.49.49.52.19.83.51 1.01 1.03.18.51.38 1.57.38 3.71v37.56c0 2.08-.21 3.15-.39 3.68-.17.52-.48.83-.97 1.01-.77.26-1.97.45-3.56.54l-1.21.07v4.05l1.32-.04c1.85-.05 3.83-.09 5.89-.11 2.07-.02 4.12-.05 6.13-.08 2.08-.03 3.92-.04 5.63-.04h4.28c2.46 0 5.28.01 8.62.04 3.21.03 6.13.09 8.67.19l1.49.06-.16-1.48c-.19-1.89-.33-3.74-.4-5.5M546.69 404.47c-.65-.85-.98-2.28-.98-4.25V366.8l-1.68.54c-1.03.33-2.19.58-3.45.75-2.61.35-5.55.32-8.61.03l-1.41-.13v4.3h1.29c1.78 0 2.96.37 3.51 1.11.64.86.96 2.29.96 4.27v15.68c0 2.39-.41 4.56-1.22 6.46-.79 1.86-1.89 3.34-3.25 4.42-1.32 1.04-2.78 1.54-4.47 1.54-1.44 0-2.48-.29-3.03-.84-.61-.61-.99-1.42-1.15-2.46-.19-1.24-.29-2.63-.29-4.12V366.8l-1.68.54c-1.03.33-2.19.58-3.45.75-2.61.35-5.55.32-8.61.03l-1.41-.13v4.3h1.29c1.78 0 2.96.37 3.51 1.11.64.86.96 2.29.96 4.27v19.01c0 2.46.19 4.56.56 6.26.4 1.84 1.17 3.37 2.29 4.55.99 1.05 2.24 1.87 3.73 2.44 1.46.56 3.17.84 5.08.84 2.65 0 5.26-.76 7.75-2.27 1.27-.77 2.4-1.8 3.38-3.08v5.75l1.73-.63c1.01-.37 2.14-.62 3.38-.76 2.66-.3 5.7-.28 8.63 0l1.41.14v-4.3h-1.29c-1.74-.03-2.91-.4-3.48-1.15M605.58 404.69c-.56-.48-.88-1.67-.88-3.34V366.8l-1.68.54c-1.03.33-2.19.58-3.45.75-2.61.35-5.55.32-8.61.03l-1.41-.13v4.3h1.29c1.78 0 2.96.37 3.51 1.11.64.86.96 2.29.96 4.27v23.7c0 1.67-.31 2.85-.87 3.34-.44.38-1.42.83-3.59.83h-1.29v4.25l1.36-.08c.88-.05 2.19-.11 3.92-.19 3.53-.15 7-.15 10.38 0 1.7.07 3 .14 3.88.19l1.36.08v-4.25h-1.29c-2.17-.02-3.15-.47-3.59-.85M646.68 403.82c-.64.5-1.17.86-1.6 1.07-.33.16-.66.24-1.01.24-.53 0-.65-.18-.71-.27-.1-.15-.34-.65-.34-2v-21.05c0-2.51-.21-4.71-.64-6.54a9.8 9.8 0 0 0-2.94-5.07c-1.09-1.04-2.48-1.83-4.12-2.37-1.59-.52-3.51-.78-5.7-.78-2.44 0-4.67.31-6.64.93-1.96.62-3.59 1.38-4.86 2.26-1.1.77-2.03 1.62-2.76 2.51-.84 1.04-1.27 2.38-1.27 3.99 0 1.44.43 2.75 1.27 3.9.93 1.28 2.37 1.93 4.26 1.93 1.59 0 2.92-.48 3.97-1.43 1.09-.98 1.64-2.31 1.64-3.95 0-1.58-.46-2.91-1.38-3.96a6.6 6.6 0 0 0-1.15-1.04c.43-.25.9-.44 1.43-.57 2.68-.66 5.05-.65 6.87 0 .77.27 1.37.82 1.85 1.66.52.91.78 2.33.78 4.21v5.5l-.55.56c-.13.14-.28.26-.44.37-.93.63-2.16 1.2-3.65 1.69-1.61.53-3.32 1.09-5.11 1.66-1.85.6-3.64 1.36-5.32 2.25-1.78.95-3.27 2.22-4.41 3.78-1.2 1.63-1.8 3.72-1.8 6.21 0 2.08.45 3.95 1.34 5.55.9 1.63 2.24 2.92 3.98 3.82 1.69.87 3.7 1.32 5.97 1.32 2.6 0 4.97-.62 7.05-1.84 1.24-.72 2.38-1.68 3.4-2.85.11.35.24.67.39.98.6 1.23 1.52 2.18 2.72 2.81 1.14.6 2.57.91 4.24.91 1.83 0 3.34-.32 4.49-.96 1.01-.56 2.09-1.27 3.19-2.11l.95-.72-2.25-3.48zm-23.8-.6c-.87-.98-1.3-2.28-1.3-3.99 0-1.76.34-3.18 1.01-4.23a8.7 8.7 0 0 1 2.67-2.67c1.17-.74 2.42-1.4 3.72-1.95 1.37-.58 2.67-1.18 3.86-1.78l.02-.01c.27-.14.53-.3.76-.49v11.67c-1.01 1.6-2.13 2.81-3.33 3.61-1.23.82-2.52 1.22-3.94 1.22-1.5.01-2.63-.45-3.47-1.38M580.21 388.26c-1.57-1.27-3.34-2.52-5.24-3.72-1.69-1.09-3.25-2.1-4.69-3.02-1.32-.84-2.4-1.75-3.2-2.72-.7-.83-1.04-1.82-1.04-3 0-1.49.42-2.57 1.28-3.29.93-.78 2.09-1.15 3.53-1.15 1.95 0 3.46.45 4.62 1.39 1.21.97 2.15 2.24 2.78 3.77.68 1.64 1.16 3.35 1.44 5.07l.18 1.08h4.1v-1.29c0-3.21.02-5.79.07-7.67s.12-3.52.22-4.89l.1-1.38h-4.25l-.13 1.15c-.15 1.31-.38 1.87-.5 2.08-.08-.04-.2-.12-.36-.25-.74-.63-1.83-1.27-3.34-1.97-1.55-.72-3.44-1.09-5.6-1.09-2.09 0-4.08.37-5.91 1.1-1.91.76-3.47 1.96-4.62 3.57-1.17 1.63-1.77 3.72-1.77 6.22 0 2.28.56 4.28 1.67 5.93 1.05 1.56 2.43 2.97 4.1 4.19a98 98 0 0 0 5.09 3.47c2.36 1.49 4.33 2.93 5.87 4.27 1.31 1.14 1.94 2.58 1.94 4.39 0 1.47-.28 2.63-.82 3.45-.56.84-1.22 1.42-2.01 1.77-.85.37-1.69.56-2.49.56-2.16 0-3.83-.49-4.97-1.45-1.19-1-2.08-2.43-2.65-4.27-.62-2-1.1-4.38-1.44-7.07l-.14-1.13h-4.14v1.29c0 3.71-.02 6.75-.07 9.05-.05 2.25-.12 4.19-.22 5.75l-.09 1.37h4.18l.17-1.09c.13-.81.28-1.28.4-1.53.45.35.91.68 1.37.99.56.38 1.12.7 1.66.97l.11.05c.97.37 1.99.66 3.03.85s2.15.28 3.31.28c2.44 0 4.72-.43 6.78-1.29 2.11-.88 3.85-2.19 5.17-3.9 1.36-1.76 2.06-3.95 2.06-6.52 0-2.27-.53-4.27-1.57-5.96-.99-1.6-2.33-3.08-3.97-4.41M691.02 392.77h-22.27v-6.89h22.27z" class="st0"/><linearGradient id="SVGID_11_" x1="708.735" x2="814.801" y1="381.824" y2="381.824" gradientUnits="userSpaceOnUse"><stop offset=".106" style="stop-color:#ce9968"/><stop offset=".469" style="stop-color:#a67649"/><stop offset=".78" style="stop-color:#94673b"/></linearGradient><path d="M730.63 405.38h-1.29c-1.58 0-2.76-.12-3.51-.36-.49-.15-.77-.44-.94-.96-.18-.53-.39-1.6-.39-3.68v-37.56c0-2.14.21-3.2.38-3.71.18-.52.49-.83 1.01-1.03.51-.19 1.53-.43 3.49-.49l1.25-.04v-4.11l-1.35.06c-1.19.05-2.65.1-4.34.15a180 180 0 0 1-10.72 0c-1.67-.05-3.07-.1-4.14-.15l-1.35-.06v4.12l1.25.04c1.57.05 2.74.21 3.49.49.52.19.83.51 1.01 1.03.18.51.38 1.57.38 3.71v37.56c0 2.08-.21 3.15-.39 3.68-.17.52-.48.83-.97 1.01-.77.26-1.97.45-3.56.54l-1.21.07v4.05l1.32-.04c1.85-.05 3.83-.09 5.89-.11 2.07-.02 4.12-.05 6.13-.08 2.08-.03 3.92-.04 5.63-.04h2.92v-4.09zm78.63-17.25c-1.57-1.27-3.34-2.52-5.24-3.72-1.69-1.09-3.25-2.1-4.69-3.02-1.32-.84-2.4-1.75-3.2-2.72-.7-.83-1.04-1.82-1.04-3 0-1.49.42-2.57 1.28-3.29.93-.78 2.09-1.15 3.53-1.15 1.95 0 3.46.45 4.62 1.39 1.21.97 2.15 2.24 2.78 3.77.68 1.64 1.16 3.35 1.44 5.07l.18 1.08h4.1v-1.29c0-3.21.02-5.79.07-7.67s.12-3.52.22-4.89l.1-1.38h-4.25l-.13 1.15c-.15 1.31-.38 1.87-.5 2.08-.08-.04-.2-.12-.36-.25-.74-.63-1.83-1.27-3.34-1.97-1.55-.72-3.44-1.09-5.6-1.09-2.09 0-4.08.37-5.91 1.09-1.91.76-3.47 1.96-4.62 3.57-1.17 1.63-1.77 3.72-1.77 6.22 0 2.28.56 4.28 1.67 5.93 1.05 1.56 2.43 2.97 4.1 4.19a98 98 0 0 0 5.09 3.47c2.36 1.49 4.33 2.93 5.87 4.27 1.31 1.14 1.94 2.58 1.94 4.39 0 1.47-.28 2.63-.82 3.45-.56.84-1.22 1.42-2.01 1.77-.85.37-1.69.56-2.49.56-2.16 0-3.83-.49-4.97-1.45-1.19-1-2.08-2.43-2.65-4.27-.62-2-1.1-4.38-1.44-7.07l-.14-1.13h-4.14v1.29c0 3.71-.02 6.75-.07 9.05-.05 2.25-.12 4.19-.22 5.75l-.09 1.37h4.18l.17-1.09c.13-.81.28-1.28.4-1.53.45.35.91.68 1.37.99.56.38 1.12.7 1.66.97l.11.05c.97.37 1.99.66 3.03.85s2.15.28 3.31.28c2.44 0 4.72-.43 6.78-1.29 2.11-.88 3.85-2.19 5.17-3.9 1.36-1.76 2.06-3.95 2.06-6.52 0-2.27-.53-4.27-1.57-5.96-.99-1.58-2.32-3.07-3.97-4.4m-27.75 21.54v-4.31c-5.35-.55-5.9.89-5.9-5.38v-17.53c0-8.95-4.61-14.39-11.99-14.39-2.68 0-5.07 1.11-7.66 2.77-2.4 1.57-4.43 2.95-6.27 4.24 0-2.21.15-6.15.15-8.28-4.17.97-8.02 1.75-13.03 1.13l-.02 4.25c5.25.49 5.62 2.8 5.62 8.8v19.01c0 6.09-.55 4.73-6.64 5.38v4.31c6.76-.52 13.41-.51 19.93 0l.08-4.31c-5.44-.55-6.07.99-6.07-5.38v-21.59c2.86-2.58 6.46-4.8 10.24-4.8 6.09 0 8.4 4.34 8.4 10.8v15.22c0 6.27-.59 5.2-5.94 5.75l.04 4.31c6.7-.54 13.1-.61 19.06 0" style="fill:url(#SVGID_11_)"/></svg>